<svg width="121" height="133" viewBox="0 0 121 133" fill="none" xmlns="http://www.w3.org/2000/svg">
<g clip-path="url(#clip0_6936_3904)">
<path fill-rule="evenodd" clip-rule="evenodd" d="M76.4071 101.093V113.704C76.4071 114.858 75.4976 115.776 74.3427 115.776C73.2027 115.776 72.3144 114.835 72.3144 113.704V97.2495C72.278 94.6645 73.2072 92.215 75.0378 90.3825C76.0409 89.379 77.1977 88.6291 78.5388 88.1819C79.5945 87.7596 80.7774 88.366 81.15 89.4225C81.5208 90.4751 80.9698 91.6677 79.906 92.0302C79.1503 92.2877 78.4958 92.7145 77.9322 93.2792C76.9136 94.2981 76.4583 95.5854 76.4111 96.9971H79.3538C80.4852 96.9971 81.4183 97.8865 81.4183 99.0269C81.4183 100.182 80.5081 101.093 79.3538 101.093H76.4071ZM89.304 115.776C84.1441 115.776 79.9406 111.546 79.9406 106.386C79.9406 101.207 84.1267 96.9971 89.304 96.9971C94.5005 96.9971 98.6677 101.19 98.6677 106.386C98.6677 111.564 94.483 115.776 89.304 115.776ZM89.304 101.093C86.3827 101.093 84.0332 103.467 84.0332 106.386C84.0332 109.287 86.4002 111.68 89.304 111.68C92.2084 111.68 94.5751 109.287 94.5751 106.386C94.5751 103.467 92.2254 101.093 89.304 101.093ZM116.142 101.166V106.508C116.142 108.017 116.588 109.396 117.667 110.475C118.23 111.039 118.885 111.466 119.64 111.724C120.704 112.086 121.255 113.279 120.884 114.332C120.512 115.388 119.329 115.994 118.28 115.575C116.932 115.125 115.775 114.375 114.772 113.372C112.942 111.539 112.013 109.09 112.049 106.508L112.049 93.5335L112.054 93.4316C112.133 92.3649 113 91.5193 114.077 91.5193C115.171 91.5193 116.056 92.346 116.136 93.441L116.141 93.5432L116.142 97.0699H118.471C119.603 97.0699 120.536 97.9591 120.536 99.0995C120.536 100.236 119.608 101.166 118.471 101.166H116.142ZM19.9053 107.619C20.4866 106.592 21.7962 106.231 22.8216 106.813C23.8472 107.396 24.2069 108.705 23.6261 109.731C22.5246 111.679 20.9224 113.311 18.9907 114.439C17.0562 115.569 14.8713 116.157 12.6316 116.157C9.27098 116.157 6.07594 114.832 3.69944 112.454C1.32363 110.076 0 106.879 0 103.515C0 100.152 1.32404 96.9532 3.69944 94.5755C6.07594 92.1975 9.27098 90.873 12.6316 90.873C14.8709 90.873 17.0562 91.4611 18.9903 92.5905C20.9219 93.7183 22.5242 95.3503 23.6257 97.2977C24.2065 98.3241 23.8467 99.6334 22.8211 100.216C21.7958 100.798 20.4861 100.438 19.9047 99.4103C19.1749 98.1209 18.1081 97.0434 16.8289 96.2964C15.5521 95.551 14.1091 95.1656 12.6316 95.1656C10.412 95.1656 8.30227 96.0399 6.73285 97.611C5.16288 99.1817 4.28924 101.294 4.28924 103.515C4.28924 105.737 5.16288 107.848 6.73285 109.419C8.30227 110.99 10.412 111.864 12.6316 111.864C14.1095 111.864 15.5525 111.479 16.8293 110.733C18.109 109.986 19.1753 108.909 19.9053 107.619ZM103.836 98.7156C105.395 97.643 107.235 97.0699 109.136 97.0699C110.268 97.0699 111.201 97.9591 111.201 99.0995C111.201 100.236 110.274 101.166 109.136 101.166C106.231 101.166 103.865 103.512 103.865 106.423V113.71C103.865 114.823 102.959 115.776 101.837 115.776C100.7 115.776 99.7726 114.846 99.7726 113.71V99.0692C99.7726 97.9378 100.661 96.9971 101.801 96.9971C102.835 96.9971 103.672 97.7329 103.836 98.7156ZM34.0983 115.776C28.9384 115.776 24.7348 111.546 24.7348 106.386C24.7348 101.207 28.9209 96.9971 34.0983 96.9971C39.2947 96.9971 43.462 101.19 43.462 106.386C43.462 111.564 39.2772 115.776 34.0983 115.776ZM34.0983 101.093C31.177 101.093 28.8275 103.467 28.8275 106.386C28.8275 109.287 31.1944 111.68 34.0983 111.68C37.0026 111.68 39.3693 109.287 39.3693 106.386C39.3693 103.467 37.0197 101.093 34.0983 101.093ZM57.4707 99.4894C58.8877 97.9601 60.8559 97.1062 62.954 97.1062C67.0999 97.1062 70.5025 100.466 70.5025 104.624C70.5025 104.682 70.4994 104.734 70.4869 104.783C70.4994 104.835 70.5025 104.886 70.5025 104.951V113.782C70.5025 114.92 69.5724 115.848 68.4378 115.848C67.2985 115.848 66.4098 114.915 66.4098 113.782V104.951C66.4098 104.89 66.4098 104.83 66.4098 104.769C66.4098 104.721 66.4098 104.672 66.4098 104.624C66.4098 102.721 64.8453 101.202 62.954 101.202C61.0628 101.202 59.4988 102.721 59.4988 104.624V113.782C59.4988 114.915 58.61 115.848 57.4707 115.848C56.3361 115.848 55.4063 114.92 55.4063 113.782V104.624C55.4063 102.726 53.8836 101.202 51.9874 101.202C50.0959 101.202 48.5321 102.721 48.5321 104.624V113.782C48.5321 114.915 47.6433 115.848 46.504 115.848C45.35 115.848 44.4389 114.938 44.4389 113.782V104.624C44.4389 100.466 47.8415 97.1062 51.9874 97.1062C54.0855 97.1062 56.0536 97.9601 57.4707 99.4894Z" fill="#3A9EAA"/>
<path d="M5.75 131.209C5.23345 131.209 4.76778 131.097 4.35272 130.874C3.93833 130.651 3.61438 130.339 3.38155 129.94C3.14858 129.541 3.03223 129.09 3.03223 128.585C3.03223 128.081 3.14858 127.63 3.38155 127.235C3.61438 126.839 3.93833 126.529 4.35272 126.305C4.76778 126.082 5.23345 125.97 5.75 125.97C6.2735 125.97 6.74217 126.082 7.1571 126.305C7.57162 126.529 7.89557 126.839 8.12841 127.235C8.36124 127.63 8.47773 128.081 8.47773 128.585C8.47773 129.09 8.36124 129.541 8.12841 129.94C7.89557 130.339 7.57162 130.651 7.1571 130.874C6.74217 131.097 6.2735 131.209 5.75 131.209ZM5.75 130.184C6.1903 130.184 6.55408 130.038 6.8412 129.744C7.12832 129.45 7.27209 129.064 7.27209 128.585C7.27209 128.106 7.12832 127.72 6.8412 127.426C6.55408 127.132 6.1903 126.985 5.75 126.985C5.31011 126.985 4.94783 127.132 4.66371 127.426C4.38013 127.72 4.23787 128.106 4.23787 128.585C4.23787 129.064 4.38013 129.45 4.66371 129.744C4.94783 130.038 5.31011 130.184 5.75 130.184ZM12.1689 125.97C12.6664 125.97 13.1112 126.079 13.5038 126.296C13.8964 126.513 14.2039 126.819 14.4274 127.215C14.6508 127.611 14.7622 128.068 14.7622 128.585C14.7622 129.102 14.6508 129.56 14.4274 129.96C14.2039 130.358 13.8964 130.667 13.5038 130.884C13.1112 131.101 12.6664 131.209 12.1689 131.209C11.4796 131.209 10.9343 130.979 10.5323 130.52V132.502C10.5323 132.776 10.3089 133 10.0347 133H9.83368C9.55952 133 9.33609 132.776 9.33609 132.502V126.525C9.33609 126.251 9.55952 126.027 9.83368 126.027H9.97745C10.2516 126.027 10.475 126.251 10.475 126.525V126.698C10.6725 126.455 10.9164 126.273 11.207 126.152C11.4971 126.03 11.818 125.97 12.1689 125.97ZM12.0349 130.184C12.4748 130.184 12.8371 130.038 13.1212 129.744C13.4048 129.45 13.5472 129.064 13.5472 128.585C13.5472 128.106 13.4048 127.72 13.1212 127.426C12.8371 127.132 12.4748 126.985 12.0349 126.985C11.7479 126.985 11.4892 127.051 11.2597 127.182C11.0299 127.313 10.8482 127.5 10.7139 127.742C10.5801 127.985 10.5128 128.265 10.5128 128.585C10.5128 128.904 10.5801 129.185 10.7139 129.428C10.8482 129.67 11.0299 129.857 11.2597 129.988C11.4892 130.119 11.7479 130.184 12.0349 130.184ZM18.9897 127.043H17.6974V130.644C17.6974 130.919 17.474 131.142 17.1998 131.142H16.9989C16.7248 131.142 16.5013 130.919 16.5013 130.644V127.043H15.1995C14.9254 127.043 14.7021 126.819 14.7021 126.545V126.525C14.7021 126.251 14.9254 126.027 15.1995 126.027H18.9897C19.2638 126.027 19.4873 126.251 19.4873 126.525V126.545C19.4873 126.819 19.2638 127.043 18.9897 127.043ZM22.0966 131.209C21.58 131.209 21.1144 131.097 20.6993 130.874C20.2849 130.651 19.961 130.339 19.7281 129.94C19.4952 129.541 19.3788 129.09 19.3788 128.585C19.3788 128.081 19.4952 127.63 19.7281 127.235C19.961 126.839 20.2849 126.529 20.6993 126.305C21.1144 126.082 21.58 125.97 22.0966 125.97C22.6201 125.97 23.0888 126.082 23.5037 126.305C23.9182 126.529 24.2422 126.839 24.475 127.235C24.708 127.63 24.8243 128.081 24.8243 128.585C24.8243 129.09 24.708 129.541 24.475 129.94C24.2422 130.339 23.9182 130.651 23.5037 130.874C23.0888 131.097 22.6201 131.209 22.0966 131.209ZM22.0966 130.184C22.5369 130.184 22.9007 130.038 23.1878 129.744C23.4749 129.45 23.6187 129.064 23.6187 128.585C23.6187 128.106 23.4749 127.72 23.1878 127.426C22.9007 127.132 22.5369 126.985 22.0966 126.985C21.6567 126.985 21.2944 127.132 21.0103 127.426C20.7267 127.72 20.5845 128.106 20.5845 128.585C20.5845 129.064 20.7267 129.45 21.0103 129.744C21.2944 130.038 21.6567 130.184 22.0966 130.184ZM30.5823 126.525V130.644C30.5823 130.919 30.3589 131.142 30.0847 131.142H29.8932C29.6191 131.142 29.3956 130.919 29.3956 130.644V127.043H26.8789V130.644C26.8789 130.919 26.6555 131.142 26.3813 131.142H26.1803C25.9061 131.142 25.6827 130.919 25.6827 130.644V126.525C25.6827 126.251 25.9061 126.027 26.1803 126.027H30.0847C30.3589 126.027 30.5823 126.251 30.5823 126.525ZM36.6663 128.613C36.6663 128.697 36.6599 128.815 36.6469 128.968H32.6369C32.707 129.344 32.8906 129.643 33.1873 129.863C33.4838 130.084 33.8525 130.194 34.2928 130.194C34.6968 130.194 35.0502 130.097 35.3517 129.906C35.5612 129.772 35.8318 129.812 35.9945 129.999L36.0065 130.013C36.1026 130.124 36.1428 130.255 36.1249 130.4C36.1075 130.546 36.0364 130.664 35.9169 130.748C35.7762 130.847 35.6194 130.931 35.4507 130.998C35.0999 131.139 34.7043 131.209 34.264 131.209C33.7027 131.209 33.2082 131.097 32.7807 130.874C32.3533 130.651 32.0228 130.339 31.79 129.94C31.5572 129.541 31.4407 129.09 31.4407 128.585C31.4407 128.087 31.5536 127.638 31.7806 127.239C32.007 126.84 32.3209 126.529 32.723 126.305C33.1251 126.082 33.5778 125.97 34.0819 125.97C34.5799 125.97 35.0247 126.08 35.4174 126.3C35.8094 126.521 36.1159 126.83 36.3359 127.229C36.5558 127.628 36.6663 128.09 36.6663 128.613ZM34.0819 126.928C33.6992 126.928 33.3752 127.041 33.1106 127.268C32.8459 127.494 32.6847 127.796 32.6275 128.173H35.5274C35.4761 127.803 35.3199 127.502 35.0582 127.272C34.7969 127.043 34.4715 126.928 34.0819 126.928ZM43.0463 130.127V131.784C43.0463 132.058 42.8229 132.282 42.5487 132.282H42.4243C42.1501 132.282 41.9267 132.058 41.9267 131.784V131.142H37.9834V131.784C37.9834 132.058 37.76 132.282 37.4858 132.282H37.371C37.0968 132.282 36.8734 132.058 36.8734 131.784V130.127H37.1126C37.4381 130.114 37.6594 129.905 37.778 129.499C37.8958 129.094 37.974 128.521 38.0123 127.78L38.061 126.507C38.071 126.239 38.291 126.027 38.5582 126.027H41.7929C42.0671 126.027 42.2905 126.251 42.2905 126.525V130.127H43.0463ZM39.1035 127.866C39.0776 128.454 39.0299 128.933 38.9597 129.303C38.8895 129.674 38.7621 129.948 38.577 130.127H41.0939V127.043H39.1319L39.1035 127.866ZM44.2972 126.027H44.4983C44.7724 126.027 44.9959 126.251 44.9959 126.525V129.399L47.6698 126.206C47.7679 126.089 47.8993 126.027 48.0515 126.027H48.4128C48.687 126.027 48.9104 126.251 48.9104 126.525V130.644C48.9104 130.919 48.687 131.142 48.4128 131.142H48.2112C47.937 131.142 47.7136 130.919 47.7136 130.644V127.771L45.0496 130.963C44.9515 131.081 44.8202 131.142 44.6674 131.142H44.2972C44.0231 131.142 43.7996 130.919 43.7996 130.644V126.525C43.7996 126.251 44.0231 126.027 44.2972 126.027ZM54.5346 126.525V130.644C54.5346 130.919 54.3112 131.142 54.037 131.142H53.8354C53.5612 131.142 53.3378 130.919 53.3378 130.644V129.16C52.8468 129.396 52.3332 129.514 51.7973 129.514C51.14 129.514 50.636 129.362 50.2852 129.059C49.9344 128.756 49.7587 128.291 49.7587 127.665V126.525C49.7587 126.251 49.9821 126.027 50.2563 126.027H50.4573C50.7315 126.027 50.9549 126.251 50.9549 126.525V127.589C50.9549 127.914 51.0505 128.157 51.242 128.317C51.4337 128.477 51.7048 128.556 52.0555 128.556C52.5024 128.556 52.9298 128.46 53.3378 128.269V126.525C53.3378 126.251 53.5612 126.027 53.8354 126.027H54.037C54.3112 126.027 54.5346 126.251 54.5346 126.525ZM60.6085 128.613C60.6085 128.697 60.6021 128.815 60.5891 128.968H56.5791C56.6493 129.344 56.8329 129.643 57.1295 129.863C57.426 130.084 57.7947 130.194 58.2351 130.194C58.6391 130.194 58.9924 130.097 59.2939 129.906C59.5034 129.772 59.7741 129.812 59.9369 129.999L59.9487 130.013C60.0447 130.124 60.0851 130.255 60.0671 130.4C60.0498 130.546 59.9786 130.664 59.8592 130.748C59.7183 130.847 59.5616 130.931 59.3929 130.998C59.0422 131.139 58.6465 131.209 58.2062 131.209C57.6449 131.209 57.1503 131.097 56.7229 130.874C56.2955 130.651 55.9652 130.339 55.7322 129.94C55.4993 129.541 55.3829 129.09 55.3829 128.585C55.3829 128.087 55.4959 127.638 55.7228 127.239C55.9492 126.84 56.2632 126.529 56.6652 126.305C57.0673 126.082 57.52 125.97 58.0241 125.97C58.5221 125.97 58.967 126.08 59.3596 126.3C59.7518 126.521 60.0583 126.83 60.2781 127.229C60.4981 127.628 60.6085 128.09 60.6085 128.613ZM58.0241 126.928C57.6415 126.928 57.3176 127.041 57.0528 127.268C56.7881 127.494 56.6268 127.796 56.5697 128.173H59.4695C59.4183 127.803 59.2621 127.502 59.0003 127.272C58.7391 127.043 58.4137 126.928 58.0241 126.928ZM63.9264 131.209C63.3965 131.209 62.9213 131.097 62.5004 130.874C62.0789 130.651 61.7504 130.339 61.5146 129.94C61.2783 129.541 61.1604 129.09 61.1604 128.585C61.1604 128.081 61.2783 127.63 61.5146 127.235C61.7504 126.839 62.0774 126.529 62.4953 126.305C62.9134 126.082 63.3901 125.97 63.9264 125.97C64.4304 125.97 64.8718 126.072 65.2515 126.276C65.4415 126.379 65.6088 126.504 65.7516 126.651C65.8621 126.764 65.9089 126.908 65.8874 127.066C65.866 127.223 65.7819 127.349 65.6451 127.428L65.5605 127.478C65.363 127.593 65.1206 127.562 64.9584 127.4C64.8629 127.304 64.7555 127.225 64.639 127.162C64.4191 127.045 64.1782 126.985 63.9165 126.985C63.4702 126.985 63.1 127.13 62.8063 127.421C62.5128 127.712 62.366 128.099 62.366 128.585C62.366 129.07 62.5113 129.458 62.8019 129.748C63.0919 130.039 63.4636 130.184 63.9165 130.184C64.1782 130.184 64.4191 130.125 64.639 130.007C64.7559 129.945 64.8629 129.865 64.9584 129.77C65.1206 129.608 65.363 129.576 65.5605 129.692L65.6416 129.739C65.7785 129.819 65.8625 129.945 65.8839 130.102C65.9053 130.259 65.858 130.403 65.7476 130.517C65.6028 130.666 65.4336 130.794 65.242 130.898C64.8629 131.105 64.424 131.209 63.9264 131.209ZM68.9669 129.092H68.0385V130.644C68.0385 130.919 67.815 131.142 67.5409 131.142H67.3398C67.0657 131.142 66.8422 130.919 66.8422 130.644V126.525C66.8422 126.251 67.0657 126.027 67.3398 126.027H67.5409C67.815 126.027 68.0385 126.251 68.0385 126.525V128.097H68.9953L70.3582 126.232C70.4552 126.099 70.596 126.027 70.7602 126.027H70.791C70.9846 126.027 71.1503 126.13 71.2364 126.304C71.3224 126.477 71.3046 126.671 71.1881 126.826L69.9332 128.489L71.32 130.346C71.4355 130.501 71.4528 130.694 71.3662 130.867C71.2802 131.04 71.1146 131.142 70.9214 131.142H70.7557C70.5941 131.142 70.4552 131.072 70.3582 130.943L68.9669 129.092ZM72.9356 126.027H73.1367C73.4109 126.027 73.6343 126.251 73.6343 126.525V129.399L76.3083 126.206C76.4063 126.089 76.5377 126.027 76.6899 126.027H77.0512C77.3254 126.027 77.5487 126.251 77.5487 126.525V130.644C77.5487 130.919 77.3254 131.142 77.0512 131.142H76.8496C76.5755 131.142 76.3521 130.919 76.3521 130.644V127.771L73.688 130.963C73.59 131.081 73.4586 131.142 73.3058 131.142H72.9356C72.6615 131.142 72.4381 130.919 72.4381 130.644V126.525C72.4381 126.251 72.6615 126.027 72.9356 126.027ZM79.3351 126.027H79.536C79.8102 126.027 80.0336 126.251 80.0336 126.525V129.399L82.7078 126.206C82.8057 126.089 82.937 126.027 83.0894 126.027H83.4506C83.7248 126.027 83.9482 126.251 83.9482 126.525V130.644C83.9482 130.919 83.7248 131.142 83.4506 131.142H83.2491C82.975 131.142 82.7515 130.919 82.7515 130.644V127.771L80.0874 130.963C79.9894 131.081 79.8581 131.142 79.7053 131.142H79.3351C79.061 131.142 78.8375 130.919 78.8375 130.644V126.525C78.8375 126.251 79.061 126.027 79.3351 126.027ZM81.3159 125.424C80.7995 125.424 80.4053 125.304 80.1342 125.065C79.9765 124.925 79.863 124.749 79.7953 124.536C79.7555 124.411 79.776 124.286 79.853 124.18C79.9302 124.074 80.0432 124.016 80.1745 124.016H80.18C80.3542 124.016 80.5019 124.123 80.5571 124.288C80.5925 124.395 80.6502 124.486 80.7274 124.562C80.8647 124.696 81.0577 124.763 81.3065 124.763C81.5488 124.763 81.7419 124.696 81.8857 124.562C81.9678 124.485 82.0275 124.392 82.0648 124.284C82.1211 124.121 82.2683 124.016 82.441 124.016H82.4663C82.5977 124.016 82.7112 124.074 82.7884 124.18C82.866 124.287 82.8859 124.413 82.845 124.537C82.7758 124.75 82.6614 124.926 82.5027 125.065C82.2286 125.304 81.8329 125.424 81.3159 125.424ZM95.1642 130.127V131.822C95.1642 132.097 94.9408 132.32 94.6666 132.32H94.5417C94.2675 132.32 94.0441 132.097 94.0441 131.822V131.142H90.0536C89.7794 131.142 89.556 130.919 89.556 130.644V126.525C89.556 126.251 89.7794 126.027 90.0536 126.027H90.2545C90.5287 126.027 90.7521 126.251 90.7521 126.525V130.127H93.1928V126.525C93.1928 126.251 93.4163 126.027 93.6904 126.027H93.8913C94.1655 126.027 94.3889 126.251 94.3889 126.525V130.127H95.1642ZM100.693 128.613C100.693 128.697 100.686 128.815 100.673 128.968H96.6634C96.7336 129.344 96.9172 129.643 97.2138 129.863C97.5103 130.084 97.879 130.194 98.3194 130.194C98.7234 130.194 99.0767 130.097 99.3782 129.906C99.5877 129.772 99.8584 129.812 100.021 129.999L100.033 130.013C100.129 130.124 100.169 130.255 100.151 130.4C100.134 130.546 100.063 130.664 99.9436 130.748C99.8027 130.847 99.6459 130.931 99.4772 130.998C99.1265 131.139 98.7308 131.209 98.2905 131.209C97.7292 131.209 97.2346 131.097 96.8072 130.874C96.3798 130.651 96.0495 130.339 95.8165 129.94C95.5837 129.541 95.4672 129.09 95.4672 128.585C95.4672 128.087 95.5802 127.638 95.8071 127.239C96.0335 126.84 96.3475 126.529 96.7495 126.305C97.1516 126.082 97.6043 125.97 98.1084 125.97C98.6064 125.97 99.0514 126.08 99.4439 126.3C99.8361 126.521 100.143 126.83 100.362 127.229C100.582 127.628 100.693 128.09 100.693 128.613ZM98.1084 126.928C97.7258 126.928 97.4019 127.041 97.1371 127.268C96.8724 127.494 96.7111 127.796 96.654 128.173H99.5538C99.5026 127.803 99.3464 127.502 99.0846 127.272C98.8234 127.043 98.498 126.928 98.1084 126.928ZM102.183 126.027H102.384C102.658 126.027 102.881 126.251 102.881 126.525V128.106H105.456V126.525C105.456 126.251 105.679 126.027 105.953 126.027H106.154C106.429 126.027 106.652 126.251 106.652 126.525V130.644C106.652 130.919 106.429 131.142 106.154 131.142H105.953C105.679 131.142 105.456 130.919 105.456 130.644V129.121H102.881V130.644C102.881 130.919 102.658 131.142 102.384 131.142H102.183C101.908 131.142 101.685 130.919 101.685 130.644V126.525C101.685 126.251 101.908 126.027 102.183 126.027ZM111.492 127.043H110.2V130.644C110.2 130.919 109.976 131.142 109.702 131.142H109.501C109.227 131.142 109.004 130.919 109.004 130.644V127.043H107.702C107.428 127.043 107.204 126.819 107.204 126.545V126.525C107.204 126.251 107.428 126.027 107.702 126.027H111.492C111.766 126.027 111.989 126.251 111.989 126.525V126.545C111.989 126.819 111.766 127.043 111.492 127.043ZM115.374 125.97C115.872 125.97 116.316 126.079 116.709 126.296C117.102 126.513 117.409 126.819 117.633 127.215C117.856 127.611 117.967 128.068 117.967 128.585C117.967 129.102 117.856 129.56 117.633 129.96C117.409 130.358 117.102 130.667 116.709 130.884C116.316 131.101 115.872 131.209 115.374 131.209C114.685 131.209 114.14 130.979 113.738 130.52V132.502C113.738 132.776 113.514 133 113.24 133H113.039C112.765 133 112.541 132.776 112.541 132.502V126.525C112.541 126.251 112.765 126.027 113.039 126.027H113.183C113.457 126.027 113.68 126.251 113.68 126.525V126.698C113.878 126.455 114.122 126.273 114.412 126.152C114.702 126.03 115.023 125.97 115.374 125.97ZM115.24 130.184C115.68 130.184 116.042 130.038 116.326 129.744C116.61 129.45 116.752 129.064 116.752 128.585C116.752 128.106 116.61 127.72 116.326 127.426C116.042 127.132 115.68 126.985 115.24 126.985C114.953 126.985 114.694 127.051 114.465 127.182C114.235 127.313 114.053 127.5 113.919 127.742C113.785 127.985 113.718 128.265 113.718 128.585C113.718 128.904 113.785 129.185 113.919 129.428C114.053 129.67 114.235 129.857 114.465 129.988C114.694 130.119 114.953 130.184 115.24 130.184Z" fill="#56326E"/>
<path d="M60.2343 68.7345V77.7368L60.235 77.8037V85.5805C60.235 87.0088 59.067 88.1776 57.64 88.1776H57.6397C56.2125 88.1776 55.0447 87.0095 55.0447 85.5805V83.1978V77.8037V68.7345H47.3775L39.949 76.2098L47.7111 84.0209C48.6567 84.9728 48.6522 86.5248 47.7014 87.471C46.7505 88.4172 45.198 88.4117 44.2542 87.4609L36.5112 79.6692L28.7677 87.4609C28.3007 87.9315 27.6845 88.17 27.066 88.1769V88.1776H26.7573H25.8076H24.9234H24.1016H23.3412H22.6396H21.9945H21.4045H20.8672H20.3804H19.9421H19.5506H19.3455H19.341H19.3289H19.3133H19.2935H19.2603H19.2409H19.2034H19.1802H19.1732H19.0933H19.0711H19.0022H18.9304H18.9021H18.8989H18.7957H18.7565H18.6844H18.6349H18.5705H18.5473H18.4558H18.409H18.3428H18.3003H18.2337H18.2195H18.1298H18.0646H18.0335H18.0141H17.9469H17.9417H17.872H17.8488H17.811H17.784H17.7656H17.7455H17.7383H17.7309H17.6859H17.3145H16.8974H16.4324H15.9176H15.3512H14.7309H14.0547H13.3206H12.5262H11.67H11.0855H11.0852H11.0848C9.70147 88.1776 8.56157 87.0788 8.49364 85.7099L8.49023 85.7068V85.5805V68.4555V66.8522C8.49023 65.4989 9.5382 64.3783 10.8621 64.2648C10.9348 64.259 11.0104 64.2554 11.0855 64.2554H11.0891H11.0925H11.0963H11.0997H11.1033H11.1067H11.1105H11.1139H11.67H26.7573C27.4737 64.1741 28.2211 64.4084 28.7668 64.9569L36.5112 72.7498L44.2549 64.9569C44.8005 64.4084 45.5471 64.1741 46.2637 64.2554H68.18H71.0912H80.2495C83.3919 64.2554 85.7417 65.0824 87.2966 66.7332C88.8827 68.417 89.6775 70.3233 89.6775 72.4519C89.6775 74.1038 89.2489 75.6051 88.3921 76.9553C87.5994 78.2038 86.4814 79.1469 85.0369 79.7843L85.2546 80.1418L87.889 84.4703C87.9331 84.5419 87.9722 84.6153 88.0075 84.6898L88.0265 84.6524L90.6815 79.5682L92.9151 75.2313L97.9613 65.4385C98.2536 64.8696 98.7432 64.4652 99.3045 64.2644L99.3294 64.2554L99.3623 64.2444L99.3652 64.2437L99.4133 64.2281L99.4203 64.2261L99.441 64.2198L99.4788 64.209L99.4975 64.2038L99.537 64.1934L99.5544 64.1892L99.5616 64.1876C99.6936 64.1556 99.8266 64.1356 99.9596 64.1262L100.009 64.123L100.019 64.1227L100.068 64.121L100.077 64.1206L100.128 64.1199H100.136L100.187 64.1206H100.196L100.245 64.1227L100.255 64.123L100.304 64.1262C100.44 64.1356 100.576 64.1567 100.71 64.1892L100.727 64.1934L100.767 64.2038L100.817 64.218L100.823 64.2198L100.844 64.2261L100.847 64.227L100.902 64.2444L100.935 64.2554L100.96 64.2644C101.521 64.4652 102.01 64.8685 102.303 65.4381L107.349 75.2313L109.583 79.5682L112.238 84.6524C112.857 85.8392 112.381 87.3243 111.189 87.9394C109.997 88.5538 108.526 88.0788 107.905 86.8895L106.009 83.2572L105.921 83.2592H94.2541L92.3594 86.8895C91.9284 87.7151 91.0872 88.2046 90.2148 88.2082C88.1583 88.2161 88.4821 88.2082 85.8962 88.2091C85.0463 88.2095 84.1874 87.7678 83.7259 87.0095L81.0773 82.657L79.883 80.6962H79.3824H79.3449H77.6578H75.9705H73.3703V83.1978V85.5805C73.3703 87.0084 72.2016 88.1776 70.7753 88.1776H70.7746C69.3483 88.1776 68.18 87.0095 68.18 85.5805V83.1978V77.8037V68.7345H60.2343ZM13.6805 73.9772H19.3403C20.5712 73.9772 21.5781 74.9848 21.5781 76.2168C21.5781 77.4486 20.5712 78.4563 19.3403 78.4563H13.6805V83.6985H25.631L33.0729 76.2098L25.6445 68.7345H13.6805V73.9772ZM104.06 79.4947L103.003 77.4439L100.132 71.8711L97.2611 77.4439L96.2041 79.4947H104.06ZM79.488 68.8781H73.3703V76.1211H79.488C82.5671 76.1211 84.1064 74.8981 84.1064 72.4519C84.1064 70.0692 82.566 68.8781 79.488 68.8781Z" fill="#56326E"/>
<path fill-rule="evenodd" clip-rule="evenodd" d="M38.0951 30.1401C36.2513 30.1401 34.7563 28.644 34.7563 26.7987C34.7563 24.9534 36.2513 23.4572 38.0951 23.4572C39.939 23.4572 41.4339 24.9534 41.4339 26.7987C41.4339 28.644 39.939 30.1401 38.0951 30.1401ZM59.8849 11.1523C56.8077 11.1523 54.3133 8.65555 54.3133 5.57621C54.3133 2.49686 56.8077 0 59.8849 0C62.9618 0 65.4567 2.49686 65.4567 5.57621C65.4567 8.65555 62.9618 11.1523 59.8849 11.1523ZM59.8847 32.0752C56.8073 32.0752 54.3128 29.5784 54.3128 26.499C54.3128 23.4197 56.8073 20.923 59.8847 20.923C62.9616 20.923 65.4565 23.4197 65.4565 26.499C65.4565 29.5784 62.9616 32.0752 59.8847 32.0752ZM60.0014 51.3626C58.1578 51.3626 56.6626 49.8664 56.6626 48.0211C56.6626 46.1758 58.1578 44.6797 60.0014 44.6797C61.8453 44.6797 63.3406 46.1758 63.3406 48.0211C63.3406 49.8664 61.8453 51.3626 60.0014 51.3626ZM81.9081 30.1401C80.0642 30.1401 78.5692 28.644 78.5692 26.7987C78.5692 24.9534 80.0642 23.4572 81.9081 23.4572C83.752 23.4572 85.2469 24.9534 85.2469 26.7987C85.2469 28.644 83.752 30.1401 81.9081 30.1401Z" fill="#56326E"/>
<path fill-rule="evenodd" clip-rule="evenodd" d="M38.0951 8.91725C36.2513 8.91725 34.7563 7.42113 34.7563 5.57581C34.7563 3.7305 36.2513 2.23438 38.0951 2.23438C39.939 2.23438 41.4339 3.7305 41.4339 5.57581C41.4339 7.42113 39.939 8.91725 38.0951 8.91725ZM38.0951 51.3626C36.2513 51.3626 34.7563 49.8665 34.7563 48.0212C34.7563 46.1758 36.2513 44.6797 38.0951 44.6797C39.939 44.6797 41.4339 46.1758 41.4339 48.0212C41.4339 49.8665 39.939 51.3626 38.0951 51.3626ZM81.9081 51.3626C80.0642 51.3626 78.5692 49.8665 78.5692 48.0212C78.5692 46.1758 80.0642 44.6797 81.9081 44.6797C83.752 44.6797 85.2469 46.1758 85.2469 48.0212C85.2469 49.8665 83.752 51.3626 81.9081 51.3626ZM63.0142 36.5748L70.4052 43.9721C72.2716 45.8399 75.31 45.8399 77.1761 43.9716C79.0421 42.1038 79.0421 39.063 77.1761 37.1954C74.7384 34.7561 72.3069 32.3121 69.8756 29.8679C68.8004 33.0623 66.239 35.5725 63.0142 36.5748ZM63.2124 16.4878L70.4052 9.28937C72.2716 7.42154 75.31 7.42154 77.1761 9.28937C79.0421 11.1575 79.0421 14.1981 77.1761 16.0655C74.7599 18.4833 72.3503 20.9059 69.9399 23.3285C68.9265 20.1064 66.4095 17.5516 63.2124 16.4878ZM49.8294 23.3285C47.4193 20.9059 45.0094 18.4833 42.5935 16.0655C40.7271 14.1981 40.7269 11.1575 42.5928 9.28937C44.4592 7.42154 47.4976 7.42154 49.3641 9.28937L56.5569 16.4878C53.3601 17.5516 50.8431 20.1064 49.8294 23.3285ZM49.8938 29.8679C47.462 32.3121 45.031 34.7561 42.5935 37.1954C40.7271 39.063 40.7269 42.1038 42.5928 43.9716C44.4592 45.8399 47.4976 45.8399 49.3641 43.9721L56.7551 36.5748C53.5306 35.5727 50.9689 33.0621 49.8938 29.8679ZM81.9081 8.91725C80.0642 8.91725 78.5692 7.42113 78.5692 5.57581C78.5692 3.7305 80.0642 2.23438 81.9081 2.23438C83.752 2.23438 85.2469 3.7305 85.2469 5.57581C85.2469 7.42113 83.752 8.91725 81.9081 8.91725Z" fill="#3A9EAA"/>
</g>
<defs>
<clipPath id="clip0_6936_3904">
<rect width="121" height="133" fill="white"/>
</clipPath>
</defs>
</svg>
