<svg width="20" height="20" viewBox="0 0 20 20" fill="none" xmlns="http://www.w3.org/2000/svg">
<g clip-path="url(#clip0_53_4073)">
<path d="M18.7979 8.59616C18.716 8.58288 18.6332 8.57675 18.5504 8.57783H4.44077L4.74843 8.43473C5.04917 8.29239 5.32275 8.09867 5.55694 7.86233L9.51363 3.90564C10.0347 3.4082 10.1223 2.60796 9.72112 2.00958C9.25422 1.37194 8.35882 1.2335 7.72113 1.7004C7.66962 1.73814 7.62065 1.77928 7.57464 1.82355L0.419694 8.9785C-0.139465 9.53704 -0.139957 10.4431 0.418576 11.0022C0.418933 11.0026 0.419336 11.003 0.419694 11.0034L7.57464 18.1583C8.13424 18.7163 9.04028 18.7151 9.59837 18.1555C9.64228 18.1114 9.68329 18.0646 9.72112 18.0152C10.1223 17.4168 10.0347 16.6166 9.51363 16.1191L5.5641 12.1553C5.35415 11.9451 5.11275 11.7689 4.8486 11.633L4.41931 11.4398H18.4716C19.2026 11.467 19.844 10.9563 19.9813 10.2378C20.1078 9.45766 19.578 8.72271 18.7979 8.59616Z" fill="#56326E"/>
</g>
<defs>
<clipPath id="clip0_53_4073">
<rect width="20" height="20" fill="white"/>
</clipPath>
</defs>
</svg>
