<svg width="20" height="20" viewBox="0 0 20 20" fill="none" xmlns="http://www.w3.org/2000/svg">
<g clip-path="url(#clip0_53_4067)">
<path d="M1.20212 8.59616C1.28395 8.58288 1.36677 8.57675 1.44964 8.57783H15.5592L15.2516 8.43473C14.9508 8.29239 14.6772 8.09867 14.4431 7.86233L10.4864 3.90564C9.96527 3.4082 9.87771 2.60796 10.2789 2.00958C10.7458 1.37194 11.6412 1.2335 12.2789 1.7004C12.3304 1.73814 12.3793 1.77928 12.4254 1.82355L19.5803 8.9785C20.1395 9.53704 20.14 10.4431 19.5814 11.0022C19.5811 11.0026 19.5807 11.003 19.5803 11.0034L12.4254 18.1583C11.8658 18.7163 10.9597 18.7151 10.4016 18.1555C10.3577 18.1114 10.3167 18.0646 10.2789 18.0152C9.87771 17.4168 9.96527 16.6166 10.4864 16.1191L14.4359 12.1553C14.6459 11.9451 14.8872 11.7689 15.1514 11.633L15.5807 11.4398H1.52839C0.797373 11.467 0.156021 10.9563 0.018692 10.2378C-0.107817 9.45766 0.422007 8.72271 1.20212 8.59616Z" fill="#56326E"/>
</g>
<defs>
<clipPath id="clip0_53_4067">
<rect width="20" height="20" fill="white" transform="matrix(-1 0 0 1 20 0)"/>
</clipPath>
</defs>
</svg>
