<svg width="20" height="20" viewBox="0 0 20 20" fill="none" xmlns="http://www.w3.org/2000/svg">
<g clip-path="url(#clip0_6936_3900)">
<path d="M8.5961 18.7979C8.58282 18.716 8.57669 18.6332 8.57777 18.5504V4.44077L8.43467 4.74843C8.29233 5.04917 8.09861 5.32275 7.86227 5.55694L3.90558 9.51363C3.40814 10.0347 2.6079 10.1223 2.00952 9.72112C1.37188 9.25422 1.23343 8.35882 1.70034 7.72113C1.73808 7.66962 1.77922 7.62065 1.82349 7.57464L8.97844 0.419694C9.53698 -0.139465 10.443 -0.139957 11.0022 0.418576C11.0025 0.418933 11.0029 0.419336 11.0033 0.419694L18.1582 7.57464C18.7163 8.13424 18.715 9.04028 18.1554 9.59837C18.1114 9.64228 18.0645 9.68329 18.0151 9.72112C17.4168 10.1223 16.6165 10.0347 16.1191 9.51363L12.1552 5.5641C11.9451 5.35415 11.7688 5.11275 11.6329 4.8486L11.4397 4.41931V18.4716C11.4669 19.2026 10.9563 19.844 10.2377 19.9813C9.4576 20.1078 8.72265 19.578 8.5961 18.7979Z" fill="#F1F5F8"/>
</g>
<defs>
<clipPath id="clip0_6936_3900">
<rect width="20" height="20" fill="white" transform="matrix(0 1 1 0 0 0)"/>
</clipPath>
</defs>
</svg>
