<svg width="34" height="34" viewBox="0 0 34 34" fill="none" xmlns="http://www.w3.org/2000/svg">
<g clip-path="url(#clip0_6505_24223)">
<rect width="34" height="34" rx="17" fill="#FAAD14"/>
<path d="M12.3037 19.718C12.747 19.7133 13.1484 19.6317 13.5077 19.473C13.8717 19.3143 14.182 19.0997 14.4387 18.829C14.6954 18.5583 14.8937 18.2433 15.0337 17.884C15.1737 17.5247 15.2437 17.1397 15.2437 16.729C15.2437 16.323 15.1737 15.9403 15.0337 15.581C14.8937 15.2217 14.6954 14.909 14.4387 14.643C14.182 14.3723 13.8717 14.1577 13.5077 13.999C13.1484 13.8403 12.747 13.7563 12.3037 13.747V19.718ZM11.0157 13.747C10.5724 13.7517 10.1687 13.8333 9.80471 13.992C9.44538 14.1507 9.13738 14.3653 8.88071 14.636C8.62404 14.9067 8.42571 15.2217 8.28571 15.581C8.14571 15.9403 8.07571 16.323 8.07571 16.729C8.07571 17.1397 8.14571 17.5247 8.28571 17.884C8.42571 18.2433 8.62404 18.5583 8.88071 18.829C9.13738 19.0997 9.44538 19.3143 9.80471 19.473C10.1687 19.6317 10.5724 19.7133 11.0157 19.718V13.747ZM12.3037 12.69C12.943 12.704 13.5264 12.8207 14.0537 13.04C14.581 13.2547 15.0314 13.5463 15.4047 13.915C15.7827 14.279 16.0744 14.7037 16.2797 15.189C16.4897 15.6697 16.5947 16.183 16.5947 16.729C16.5947 17.2797 16.4897 17.7977 16.2797 18.283C16.0744 18.7683 15.7827 19.1953 15.4047 19.564C15.0314 19.928 14.581 20.2197 14.0537 20.439C13.5264 20.6583 12.943 20.775 12.3037 20.789V22H11.0157V20.789C10.3717 20.775 9.78604 20.6583 9.25871 20.439C8.73138 20.2197 8.27871 19.928 7.90071 19.564C7.52738 19.1953 7.23571 18.7683 7.02571 18.283C6.82038 17.7977 6.71771 17.2797 6.71771 16.729C6.71771 16.183 6.82271 15.6697 7.03271 15.189C7.24271 14.7037 7.53671 14.279 7.91471 13.915C8.29271 13.5463 8.74538 13.2547 9.27271 13.04C9.80004 12.8207 10.381 12.704 11.0157 12.69V11.514H12.3037V12.69ZM26.5379 11.969V22H25.1799V14.874C25.1799 14.6733 25.1846 14.4657 25.1939 14.251C25.2032 14.0317 25.2242 13.8007 25.2569 13.558C25.1775 13.768 25.0935 13.964 25.0049 14.146C24.9162 14.328 24.8252 14.4867 24.7319 14.622L20.0279 21.573C19.9625 21.6803 19.8785 21.7783 19.7759 21.867C19.6732 21.9557 19.5542 22 19.4189 22H18.4109V11.969H19.7689V19.102C19.7689 19.3027 19.7642 19.5127 19.7549 19.732C19.7455 19.9467 19.7245 20.1777 19.6919 20.425C19.7712 20.2103 19.8552 20.012 19.9439 19.83C20.0372 19.648 20.1282 19.487 20.2169 19.347L24.9209 12.396C24.9862 12.2887 25.0702 12.1907 25.1729 12.102C25.2755 12.0133 25.3945 11.969 25.5299 11.969H26.5379Z" fill="white"/>
</g>
<defs>
<clipPath id="clip0_6505_24223">
<rect width="34" height="34" rx="17" fill="white"/>
</clipPath>
</defs>
</svg>
