<svg width="40" height="40" viewBox="0 0 40 40" fill="none" xmlns="http://www.w3.org/2000/svg">
<path d="M20.3937 40C20.2613 40 20.1288 40 19.9955 39.9994C16.8601 40.007 13.9631 39.9274 11.1457 39.7559C8.56265 39.5987 6.20485 38.7061 4.32679 37.1747C2.51466 35.697 1.27716 33.699 0.648806 31.2369C0.101929 29.0933 0.0729372 26.9891 0.0451661 24.9539C0.0250244 23.4936 0.00427247 21.7633 0 20.0036C0.00427247 18.2366 0.0250244 16.5063 0.0451661 15.046C0.0729372 13.0111 0.101929 10.9069 0.648806 8.76303C1.27716 6.30087 2.51466 4.30288 4.32679 2.82521C6.20485 1.29384 8.56265 0.401195 11.146 0.244029C13.9634 0.072825 16.861 -0.00713128 20.0031 0.000498136C23.1394 -0.00621575 26.0355 0.072825 28.8529 0.244029C31.4359 0.401195 33.7937 1.29384 35.6718 2.82521C37.4842 4.30288 38.7214 6.30087 39.3498 8.76303C39.8967 10.9066 39.9256 13.0111 39.9534 15.046C39.9736 16.5063 39.9946 18.2366 39.9986 19.9963V20.0036C39.9946 21.7633 39.9736 23.4936 39.9534 24.9539C39.9256 26.9888 39.897 29.093 39.3498 31.2369C38.7214 33.699 37.4842 35.697 35.6718 37.1747C33.7937 38.7061 31.4359 39.5987 28.8529 39.7559C26.1549 39.92 23.3832 40 20.3937 40ZM19.9955 36.8744C23.0799 36.8817 25.9119 36.8039 28.6631 36.6366C30.6162 36.5179 32.3097 35.8841 33.697 34.7528C34.9793 33.707 35.8625 32.2641 36.3218 30.4641C36.7771 28.6798 36.8034 26.7639 36.8287 24.9111C36.8486 23.4606 36.8693 21.7425 36.8736 19.9999C36.8693 18.2571 36.8486 16.5392 36.8287 15.0887C36.8034 13.236 36.7771 11.3201 36.3218 9.53544C35.8625 7.73551 34.9793 6.29263 33.697 5.24679C32.3097 4.11581 30.6162 3.48195 28.6631 3.36324C25.9119 3.1957 23.0799 3.11849 20.0028 3.1252C16.919 3.11788 14.0866 3.1957 11.3355 3.36324C9.38235 3.48195 7.68893 4.11581 6.30159 5.24679C5.01924 6.29263 4.13606 7.73551 3.67677 9.53544C3.22144 11.3201 3.1952 13.2357 3.16987 15.0887C3.15003 16.5405 3.12928 18.2595 3.12501 20.0036C3.12928 21.7401 3.15003 23.4594 3.16987 24.9111C3.1952 26.7639 3.22144 28.6798 3.67677 30.4641C4.13606 32.2641 5.01924 33.707 6.30159 34.7528C7.68893 35.8838 9.38235 36.5176 11.3355 36.6363C14.0866 36.8039 16.9196 36.882 19.9955 36.8744ZM19.921 29.7656C14.5365 29.7656 10.1554 25.3848 10.1554 19.9999C10.1554 14.6151 14.5365 10.2343 19.921 10.2343C25.3059 10.2343 29.6867 14.6151 29.6867 19.9999C29.6867 25.3848 25.3059 29.7656 19.921 29.7656ZM19.921 13.3593C16.2595 13.3593 13.2804 16.3384 13.2804 19.9999C13.2804 23.6615 16.2595 26.6406 19.921 26.6406C23.5828 26.6406 26.5617 23.6615 26.5617 19.9999C26.5617 16.3384 23.5828 13.3593 19.921 13.3593ZM30.7804 7.10928C29.4862 7.10928 28.4367 8.15848 28.4367 9.45304C28.4367 10.7476 29.4862 11.7968 30.7804 11.7968C32.075 11.7968 33.1242 10.7476 33.1242 9.45304C33.1242 8.15848 32.075 7.10928 30.7804 7.10928Z" fill="#56326E"/>
</svg>
