<svg width="121" height="133" fill="none" xmlns="http://www.w3.org/2000/svg"><g clip-path="url(#a)"><path fill-rule="evenodd" clip-rule="evenodd" d="M76.407 101.093v12.611c0 1.154-.91 2.072-2.064 2.072-1.14 0-2.029-.941-2.029-2.072V97.25c-.036-2.585.893-5.035 2.724-6.868 1.003-1.003 2.16-1.753 3.5-2.2 1.056-.422 2.24.184 2.612 1.24.37 1.053-.18 2.246-1.244 2.608a5.087 5.087 0 0 0-1.974 1.25c-1.018 1.018-1.474 2.305-1.52 3.717h2.942c1.131 0 2.064.89 2.064 2.03 0 1.155-.91 2.066-2.064 2.066h-2.947zm12.897 14.683c-5.16 0-9.363-4.23-9.363-9.39 0-5.179 4.186-9.389 9.363-9.389 5.197 0 9.364 4.193 9.364 9.389 0 5.178-4.185 9.39-9.364 9.39zm0-14.683c-2.921 0-5.27 2.374-5.27 5.293 0 2.901 2.366 5.294 5.27 5.294 2.904 0 5.271-2.393 5.271-5.294 0-2.919-2.35-5.293-5.271-5.293zm26.838.073v5.342c0 1.509.446 2.888 1.525 3.967a5.1 5.1 0 0 0 1.973 1.249c1.064.362 1.615 1.555 1.244 2.608-.372 1.056-1.555 1.662-2.604 1.243-1.348-.45-2.505-1.2-3.508-2.203-1.83-1.833-2.759-4.282-2.723-6.864V93.534l.005-.102c.079-1.067.946-1.913 2.023-1.913 1.094 0 1.979.827 2.059 1.922l.005.102.001 3.527h2.329c1.132 0 2.065.89 2.065 2.03a2.071 2.071 0 0 1-2.065 2.066h-2.329zm-96.237 6.453a2.141 2.141 0 0 1 2.917-.806 2.145 2.145 0 0 1 .804 2.918 12.688 12.688 0 0 1-4.635 4.708 12.576 12.576 0 0 1-6.36 1.718c-3.36 0-6.555-1.325-8.932-3.703A12.61 12.61 0 0 1 0 103.515c0-3.363 1.324-6.562 3.7-8.94a12.592 12.592 0 0 1 8.932-3.702c2.239 0 4.424.588 6.358 1.718a12.69 12.69 0 0 1 4.636 4.707 2.145 2.145 0 0 1-.805 2.918 2.14 2.14 0 0 1-2.916-.806 8.416 8.416 0 0 0-3.076-3.114 8.304 8.304 0 0 0-4.197-1.13c-2.22 0-4.33.874-5.9 2.445a8.327 8.327 0 0 0-2.443 5.904c0 2.222.874 4.333 2.444 5.904a8.312 8.312 0 0 0 5.899 2.445c1.478 0 2.92-.385 4.197-1.131a8.41 8.41 0 0 0 3.076-3.114zm83.931-8.903a9.33 9.33 0 0 1 5.3-1.646c1.132 0 2.065.89 2.065 2.03a2.07 2.07 0 0 1-2.065 2.066c-2.905 0-5.271 2.346-5.271 5.257v7.287c0 1.113-.906 2.066-2.028 2.066a2.07 2.07 0 0 1-2.064-2.066V99.07c0-1.132.888-2.073 2.028-2.073 1.034 0 1.871.736 2.035 1.719zm-69.738 17.06c-5.16 0-9.363-4.23-9.363-9.39 0-5.179 4.186-9.389 9.363-9.389 5.197 0 9.364 4.193 9.364 9.389 0 5.178-4.185 9.39-9.364 9.39zm0-14.683c-2.921 0-5.27 2.374-5.27 5.293 0 2.901 2.366 5.294 5.27 5.294 2.905 0 5.271-2.393 5.271-5.294 0-2.919-2.35-5.293-5.27-5.293zm23.373-1.604a7.432 7.432 0 0 1 5.483-2.383c4.146 0 7.548 3.36 7.548 7.518a.64.64 0 0 1-.015.159.696.696 0 0 1 .016.168v8.831c0 1.138-.93 2.066-2.065 2.066-1.14 0-2.028-.933-2.028-2.066v-9.158c0-1.903-1.565-3.422-3.456-3.422s-3.455 1.519-3.455 3.422v9.158c0 1.133-.889 2.066-2.028 2.066a2.07 2.07 0 0 1-2.065-2.066v-9.158a3.41 3.41 0 0 0-3.419-3.422c-1.891 0-3.455 1.519-3.455 3.422v9.158c0 1.133-.889 2.066-2.028 2.066a2.048 2.048 0 0 1-2.065-2.066v-9.158c0-4.158 3.403-7.518 7.548-7.518 2.099 0 4.067.854 5.484 2.383z" fill="#3A9EAA"/><path d="M5.75 131.209c-.517 0-.982-.112-1.397-.335a2.442 2.442 0 0 1-.971-.934 2.635 2.635 0 0 1-.35-1.355c0-.504.117-.955.35-1.35a2.46 2.46 0 0 1 .97-.93c.416-.223.881-.335 1.398-.335.524 0 .992.112 1.407.335.415.224.739.534.971.93.233.395.35.846.35 1.35 0 .505-.117.956-.35 1.355a2.442 2.442 0 0 1-.97.934 2.924 2.924 0 0 1-1.408.335zm0-1.025c.44 0 .804-.146 1.091-.44.287-.294.431-.68.431-1.159s-.144-.865-.43-1.159c-.288-.294-.652-.441-1.092-.441-.44 0-.802.147-1.086.441-.284.294-.426.68-.426 1.159s.142.865.426 1.159c.284.294.646.44 1.086.44zm6.419-4.214c.497 0 .942.109 1.335.326.392.217.7.523.923.919.224.396.335.853.335 1.37 0 .517-.111.975-.335 1.375a2.345 2.345 0 0 1-.923.924 2.712 2.712 0 0 1-1.335.325c-.69 0-1.235-.23-1.637-.689v1.982a.499.499 0 0 1-.497.498h-.201a.499.499 0 0 1-.498-.498v-5.977c0-.274.224-.498.498-.498h.143c.275 0 .498.224.498.498v.173a1.84 1.84 0 0 1 .732-.546c.29-.122.611-.182.962-.182zm-.134 4.214c.44 0 .802-.146 1.086-.44.284-.294.426-.68.426-1.159s-.142-.865-.426-1.159c-.284-.294-.646-.441-1.086-.441-.287 0-.546.066-.775.197-.23.131-.412.318-.546.56a1.717 1.717 0 0 0-.201.843c0 .319.067.6.2.843.135.242.317.429.547.56.23.131.488.196.775.196zm6.955-3.141h-1.293v3.601a.498.498 0 0 1-.497.498h-.201a.498.498 0 0 1-.498-.498v-3.601H15.2a.499.499 0 0 1-.497-.498v-.02c0-.274.223-.498.498-.498h3.79c.274 0 .497.224.497.498v.02a.499.499 0 0 1-.497.498zm3.107 4.166c-.517 0-.983-.112-1.398-.335a2.443 2.443 0 0 1-.97-.934 2.636 2.636 0 0 1-.35-1.355c0-.504.116-.955.35-1.35a2.46 2.46 0 0 1 .97-.93c.415-.223.881-.335 1.398-.335.523 0 .992.112 1.407.335.414.224.738.534.971.93.233.395.35.846.35 1.35 0 .505-.117.956-.35 1.355a2.442 2.442 0 0 1-.971.934 2.924 2.924 0 0 1-1.407.335zm0-1.025c.44 0 .804-.146 1.09-.44.288-.294.432-.68.432-1.159s-.144-.865-.431-1.159c-.287-.294-.651-.441-1.091-.441-.44 0-.803.147-1.087.441-.283.294-.426.68-.426 1.159s.143.865.426 1.159c.284.294.647.44 1.087.44zm8.485-3.659v4.119a.498.498 0 0 1-.497.498h-.192a.498.498 0 0 1-.497-.498v-3.601h-2.517v3.601a.498.498 0 0 1-.498.498h-.2a.498.498 0 0 1-.498-.498v-4.119c0-.274.223-.498.497-.498h3.905c.274 0 .497.224.497.498zm6.084 2.088c0 .084-.006.202-.02.355h-4.01c.071.376.255.675.551.895.297.221.666.331 1.106.331.404 0 .757-.097 1.059-.288a.494.494 0 0 1 .643.093l.012.014a.481.481 0 0 1 .118.387.481.481 0 0 1-.208.348c-.14.099-.298.183-.466.25-.351.141-.747.211-1.187.211-.561 0-1.056-.112-1.483-.335a2.411 2.411 0 0 1-.991-.934 2.637 2.637 0 0 1-.35-1.355c0-.498.114-.947.34-1.346.227-.399.54-.71.943-.934a2.754 2.754 0 0 1 1.359-.335c.498 0 .943.11 1.335.33.392.221.699.53.919.929.22.399.33.861.33 1.384zm-2.584-1.685a1.44 1.44 0 0 0-.971.34 1.427 1.427 0 0 0-.483.905h2.9a1.416 1.416 0 0 0-.47-.901c-.261-.229-.587-.344-.976-.344zm8.964 3.199v1.657a.499.499 0 0 1-.497.498h-.125a.499.499 0 0 1-.497-.498v-.642h-3.944v.642a.499.499 0 0 1-.497.498h-.115a.499.499 0 0 1-.498-.498v-1.657h.24c.325-.013.546-.222.665-.628.118-.405.196-.978.234-1.719l.049-1.273c.01-.268.23-.48.497-.48h3.235c.274 0 .498.224.498.498v3.602h.755zm-3.943-2.261a10.452 10.452 0 0 1-.143 1.437c-.07.371-.198.645-.383.824h2.517v-3.084h-1.962l-.029.823zm5.194-1.839h.201c.274 0 .498.224.498.498v2.874l2.674-3.193a.484.484 0 0 1 .381-.179h.362c.274 0 .497.224.497.498v4.119a.498.498 0 0 1-.497.498h-.202a.498.498 0 0 1-.497-.498v-2.873l-2.664 3.192a.48.48 0 0 1-.383.179h-.37a.498.498 0 0 1-.497-.498v-4.119c0-.274.223-.498.497-.498zm10.238.498v4.119a.498.498 0 0 1-.498.498h-.202a.498.498 0 0 1-.497-.498v-1.484a3.514 3.514 0 0 1-1.54.354c-.658 0-1.162-.152-1.513-.455-.35-.303-.526-.768-.526-1.394v-1.14c0-.274.223-.498.497-.498h.201c.274 0 .498.224.498.498v1.064c0 .325.096.568.287.728.192.16.463.239.814.239a2.99 2.99 0 0 0 1.282-.287v-1.744c0-.274.223-.498.497-.498h.202c.274 0 .498.224.498.498zm6.074 2.088c0 .084-.007.202-.02.355h-4.01c.07.376.254.675.55.895.297.221.666.331 1.106.331.404 0 .757-.097 1.059-.288a.495.495 0 0 1 .643.093l.012.014a.481.481 0 0 1 .118.387.481.481 0 0 1-.208.348c-.14.099-.297.183-.466.25-.35.141-.746.211-1.187.211-.561 0-1.056-.112-1.483-.335a2.413 2.413 0 0 1-.99-.934 2.636 2.636 0 0 1-.35-1.355c0-.498.113-.947.34-1.346.226-.399.54-.71.942-.934a2.754 2.754 0 0 1 1.36-.335c.497 0 .942.11 1.335.33.392.221.698.53.918.929.22.399.33.861.33 1.384zm-2.585-1.685a1.44 1.44 0 0 0-.971.34 1.427 1.427 0 0 0-.483.905h2.9a1.415 1.415 0 0 0-.47-.901c-.26-.229-.586-.344-.976-.344zm5.902 4.281c-.53 0-1.005-.112-1.426-.335a2.454 2.454 0 0 1-.985-.934 2.606 2.606 0 0 1-.355-1.355c0-.504.118-.955.355-1.35.235-.396.562-.706.98-.93a2.993 2.993 0 0 1 1.431-.335c.504 0 .946.102 1.325.306.19.103.358.228.5.375.111.113.158.257.136.415a.48.48 0 0 1-.242.362l-.084.05a.492.492 0 0 1-.603-.078 1.363 1.363 0 0 0-.319-.238 1.515 1.515 0 0 0-.722-.177c-.447 0-.817.145-1.11.436-.294.291-.441.678-.441 1.164 0 .485.145.873.436 1.163.29.291.662.436 1.114.436.262 0 .503-.059.723-.177a1.35 1.35 0 0 0 .32-.237.491.491 0 0 1 .602-.078l.08.047c.137.08.221.206.243.363a.485.485 0 0 1-.136.415 2.096 2.096 0 0 1-.506.381c-.38.207-.818.311-1.316.311zm5.04-2.117h-.927v1.552a.498.498 0 0 1-.498.498h-.201a.498.498 0 0 1-.498-.498v-4.119c0-.274.224-.498.498-.498h.2c.275 0 .498.224.498.498v1.572h.957l1.363-1.865a.483.483 0 0 1 .402-.205h.031c.194 0 .36.103.445.277a.489.489 0 0 1-.048.522l-1.255 1.663 1.387 1.857a.487.487 0 0 1 .046.521.486.486 0 0 1-.445.275h-.165c-.162 0-.3-.07-.398-.199l-1.391-1.851zm3.97-3.065h.2c.275 0 .498.224.498.498v2.874l2.674-3.193a.483.483 0 0 1 .382-.179h.361c.274 0 .498.224.498.498v4.119a.498.498 0 0 1-.498.498h-.201a.498.498 0 0 1-.498-.498v-2.873l-2.664 3.192a.48.48 0 0 1-.382.179h-.37a.498.498 0 0 1-.498-.498v-4.119c0-.274.224-.498.498-.498zm6.4 0h.2c.274 0 .498.224.498.498v2.874l2.674-3.193a.483.483 0 0 1 .381-.179h.362c.274 0 .497.224.497.498v4.119a.498.498 0 0 1-.497.498h-.202a.498.498 0 0 1-.498-.498v-2.873l-2.664 3.192a.48.48 0 0 1-.382.179h-.37a.498.498 0 0 1-.497-.498v-4.119c0-.274.223-.498.497-.498zm1.98-.603c-.517 0-.91-.12-1.182-.359a1.164 1.164 0 0 1-.339-.529.389.389 0 0 1 .058-.356.387.387 0 0 1 .322-.164h.005c.174 0 .322.107.377.272a.679.679 0 0 0 .17.274c.138.134.33.201.58.201.242 0 .435-.067.579-.201a.68.68 0 0 0 .179-.278.393.393 0 0 1 .376-.268h.025c.132 0 .245.058.322.164a.386.386 0 0 1 .057.357c-.07.213-.184.389-.342.528-.274.239-.67.359-1.187.359zm13.848 4.703v1.695a.498.498 0 0 1-.497.498h-.125a.498.498 0 0 1-.498-.498v-.68h-3.99a.498.498 0 0 1-.498-.498v-4.119c0-.274.223-.498.498-.498h.2c.275 0 .498.224.498.498v3.602h2.44v-3.602c0-.274.224-.498.498-.498h.201c.274 0 .498.224.498.498v3.602h.775zm5.529-1.514c0 .084-.007.202-.02.355h-4.01c.07.376.254.675.55.895.297.221.666.331 1.106.331.404 0 .758-.097 1.06-.288a.494.494 0 0 1 .642.093l.012.014a.481.481 0 0 1 .118.387.48.48 0 0 1-.207.348c-.141.099-.298.183-.467.25-.35.141-.746.211-1.187.211-.56 0-1.055-.112-1.483-.335a2.413 2.413 0 0 1-.99-.934 2.637 2.637 0 0 1-.35-1.355c0-.498.113-.947.34-1.346.227-.399.54-.71.942-.934a2.754 2.754 0 0 1 1.36-.335c.497 0 .942.11 1.335.33.392.221.699.53.918.929.22.399.331.861.331 1.384zm-2.585-1.685a1.44 1.44 0 0 0-.97.34 1.427 1.427 0 0 0-.484.905h2.9a1.415 1.415 0 0 0-.47-.901c-.26-.229-.586-.344-.976-.344zm4.075-.901h.201c.274 0 .497.224.497.498v1.581h2.575v-1.581c0-.274.223-.498.497-.498h.201c.275 0 .498.224.498.498v4.119a.498.498 0 0 1-.498.498h-.201a.498.498 0 0 1-.497-.498v-1.523h-2.575v1.523a.498.498 0 0 1-.497.498h-.201a.498.498 0 0 1-.498-.498v-4.119c0-.274.223-.498.498-.498zm9.309 1.016H110.2v3.601a.499.499 0 0 1-.498.498h-.201a.498.498 0 0 1-.497-.498v-3.601h-1.302a.5.5 0 0 1-.498-.498v-.02a.5.5 0 0 1 .498-.498h3.79c.274 0 .497.224.497.498v.02a.498.498 0 0 1-.497.498zm3.882-1.073c.498 0 .942.109 1.335.326.393.217.7.523.924.919.223.396.334.853.334 1.37 0 .517-.111.975-.334 1.375a2.346 2.346 0 0 1-.924.924 2.712 2.712 0 0 1-1.335.325c-.689 0-1.234-.23-1.636-.689v1.982a.5.5 0 0 1-.498.498h-.201a.5.5 0 0 1-.498-.498v-5.977a.5.5 0 0 1 .498-.498h.144c.274 0 .497.224.497.498v.173c.198-.243.442-.425.732-.546.29-.122.611-.182.962-.182zm-.134 4.214c.44 0 .802-.146 1.086-.44.284-.294.426-.68.426-1.159s-.142-.865-.426-1.159c-.284-.294-.646-.441-1.086-.441-.287 0-.546.066-.775.197-.23.131-.412.318-.546.56a1.715 1.715 0 0 0-.201.843c0 .319.067.6.201.843.134.242.316.429.546.56.229.131.488.196.775.196zM60.234 68.734v9.003l.001.067v7.776a2.604 2.604 0 0 1-2.595 2.598 2.603 2.603 0 0 1-2.595-2.597V68.733h-7.668L39.95 76.21l7.762 7.81a2.448 2.448 0 0 1-.01 3.451c-.95.946-2.503.94-3.447-.01l-7.743-7.792-7.743 7.792c-.467.47-1.084.709-1.702.716H11.085a2.604 2.604 0 0 1-2.591-2.467l-.004-.003V66.852a2.604 2.604 0 0 1 2.595-2.597h15.672a2.442 2.442 0 0 1 2.01.702l7.744 7.793 7.744-7.793a2.44 2.44 0 0 1 2.009-.702H80.25c3.142 0 5.492.827 7.047 2.478 1.586 1.684 2.38 3.59 2.38 5.719 0 1.652-.428 3.153-1.285 4.503-.793 1.249-1.91 2.192-3.355 2.83l.218.357 2.634 4.328c.044.072.083.145.118.22l.02-.038 2.654-5.084 2.234-4.337 5.046-9.792a2.42 2.42 0 0 1 1.344-1.175l.024-.009.033-.01.003-.001.048-.016.007-.002.021-.006.038-.011.019-.005.039-.01.017-.005.008-.001c.132-.032.265-.052.398-.062l.049-.003h.01l.049-.002h.009l.051-.001H100.196l.049.003h.01l.049.003c.136.01.272.03.406.063l.017.004.04.01.05.015.006.002.021.006.003.001.055.017.033.011.025.01c.561.2 1.05.603 1.343 1.173l5.046 9.793 2.234 4.337 2.655 5.084a2.446 2.446 0 0 1-1.049 3.287 2.45 2.45 0 0 1-3.284-1.05l-1.896-3.632-.088.002H94.254l-1.895 3.63a2.442 2.442 0 0 1-2.144 1.32c-2.057.007-1.733 0-4.319 0-.85 0-1.709-.441-2.17-1.2l-2.649-4.352-1.194-1.96H73.37v4.883a2.605 2.605 0 0 1-2.595 2.598 2.604 2.604 0 0 1-2.595-2.597V68.733h-7.946zm-46.553 5.243h5.66a2.245 2.245 0 0 1 2.237 2.24 2.245 2.245 0 0 1-2.238 2.24h-5.66v5.242h11.951l7.442-7.49-7.428-7.475H13.68v5.243zm90.379 5.518-1.057-2.051-2.871-5.573-2.87 5.573-1.058 2.05h7.856zM79.488 68.878H73.37v7.243h6.118c3.08 0 4.618-1.223 4.618-3.67 0-2.382-1.54-3.573-4.618-3.573z" fill="#56326E"/><path fill-rule="evenodd" clip-rule="evenodd" d="M38.095 30.14a3.34 3.34 0 0 1-3.339-3.341 3.34 3.34 0 0 1 3.34-3.342 3.34 3.34 0 0 1 3.338 3.342 3.34 3.34 0 0 1-3.339 3.341zm21.79-18.988a5.574 5.574 0 0 1-5.572-5.576A5.574 5.574 0 0 1 59.885 0a5.574 5.574 0 0 1 5.572 5.576 5.574 5.574 0 0 1-5.572 5.576zm0 20.923a5.574 5.574 0 0 1-5.572-5.576 5.574 5.574 0 0 1 5.572-5.576 5.574 5.574 0 0 1 5.572 5.576 5.574 5.574 0 0 1-5.572 5.576zM60 51.363a3.34 3.34 0 0 1-3.338-3.342A3.34 3.34 0 0 1 60 44.68a3.34 3.34 0 0 1 3.34 3.341A3.34 3.34 0 0 1 60 51.363zM81.908 30.14A3.34 3.34 0 0 1 78.57 26.8a3.34 3.34 0 0 1 3.34-3.342 3.34 3.34 0 0 1 3.338 3.342 3.34 3.34 0 0 1-3.339 3.341z" fill="#56326E"/><path fill-rule="evenodd" clip-rule="evenodd" d="M38.095 8.917a3.34 3.34 0 0 1-3.339-3.341 3.34 3.34 0 0 1 3.34-3.342 3.34 3.34 0 0 1 3.338 3.342 3.34 3.34 0 0 1-3.339 3.341zm0 42.446a3.34 3.34 0 0 1-3.339-3.342 3.34 3.34 0 0 1 3.34-3.341 3.34 3.34 0 0 1 3.338 3.341 3.34 3.34 0 0 1-3.339 3.342zm43.813 0a3.34 3.34 0 0 1-3.339-3.342 3.34 3.34 0 0 1 3.34-3.341 3.34 3.34 0 0 1 3.338 3.341 3.34 3.34 0 0 1-3.339 3.342zM63.014 36.575l7.391 7.397a4.79 4.79 0 0 0 6.771 0 4.8 4.8 0 0 0 0-6.777c-2.438-2.439-4.87-4.883-7.3-7.327a10.57 10.57 0 0 1-6.862 6.707zm.198-20.087 7.193-7.199a4.791 4.791 0 0 1 6.771 0 4.8 4.8 0 0 1 0 6.777c-2.416 2.417-4.826 4.84-7.236 7.262a10.57 10.57 0 0 0-6.728-6.84zm-13.383 6.84c-2.41-2.422-4.82-4.845-7.236-7.262a4.8 4.8 0 0 1 0-6.777 4.792 4.792 0 0 1 6.771 0l7.193 7.199a10.571 10.571 0 0 0-6.728 6.84zm.065 6.54c-2.432 2.444-4.863 4.888-7.3 7.327a4.8 4.8 0 0 0-.001 6.777 4.791 4.791 0 0 0 6.771 0l7.391-7.397a10.571 10.571 0 0 1-6.861-6.707zm32.014-20.95a3.34 3.34 0 0 1-3.339-3.342 3.34 3.34 0 0 1 3.34-3.342 3.34 3.34 0 0 1 3.338 3.342 3.34 3.34 0 0 1-3.339 3.341z" fill="#3A9EAA"/></g><defs><clipPath id="a"><path fill="#fff" d="M0 0h121v133H0z"/></clipPath></defs></svg>