<svg width="275" height="74" viewBox="0 0 275 74" fill="none" xmlns="http://www.w3.org/2000/svg">
<path fill-rule="evenodd" clip-rule="evenodd" d="M159.407 38.9728V51.5837C159.407 52.7374 158.498 53.6556 157.343 53.6556C156.203 53.6556 155.314 52.7149 155.314 51.5837V35.1294C155.278 32.5444 156.207 30.0949 158.038 28.2624C159.041 27.2589 160.198 26.5089 161.539 26.0617C162.595 25.6395 163.777 26.2459 164.15 27.3023C164.521 28.3549 163.97 29.5476 162.906 29.91C162.15 30.1676 161.496 30.5944 160.932 31.1591C159.914 32.178 159.458 33.4653 159.411 34.877H162.354C163.485 34.877 164.418 35.7664 164.418 36.9067C164.418 38.062 163.508 38.9728 162.354 38.9728H159.407ZM172.304 53.6556C167.144 53.6556 162.941 49.4263 162.941 44.2663C162.941 39.0873 167.127 34.877 172.304 34.877C177.5 34.877 181.668 39.0699 181.668 44.2663C181.668 49.4438 177.483 53.6556 172.304 53.6556ZM172.304 38.9728C169.383 38.9728 167.033 41.3472 167.033 44.2663C167.033 47.1665 169.4 49.5597 172.304 49.5597C175.208 49.5597 177.575 47.1671 177.575 44.2663C177.575 41.3467 175.225 38.9728 172.304 38.9728ZM199.142 39.0456V44.3879C199.142 45.8972 199.588 47.2762 200.667 48.3547C201.23 48.9193 201.885 49.3462 202.64 49.6036C203.704 49.966 204.255 51.1587 203.884 52.2115C203.512 53.2678 202.329 53.8743 201.28 53.4545C199.932 53.0047 198.775 52.2547 197.772 51.2514C195.942 49.4189 195.013 46.9694 195.049 44.3879L195.049 31.4134L195.054 31.3114C195.133 30.2448 196 29.3992 197.077 29.3992C198.171 29.3992 199.056 30.2259 199.136 31.3209L199.141 31.4231L199.142 34.9498H201.471C202.603 34.9498 203.536 35.839 203.536 36.9794C203.536 38.1154 202.608 39.0456 201.471 39.0456H199.142ZM102.905 45.4988C103.487 44.4715 104.796 44.111 105.822 44.693C106.847 45.2758 107.207 46.5849 106.626 47.6112C105.525 49.5593 103.922 51.1911 101.991 52.319C100.056 53.449 97.8713 54.0366 95.6316 54.0366C92.271 54.0366 89.0759 52.7119 86.6994 50.3342C84.3236 47.9557 83 44.7584 83 41.3949C83 38.0316 84.324 34.8331 86.6994 32.4554C89.0759 30.0774 92.271 28.7529 95.6316 28.7529C97.8709 28.7529 100.056 29.3409 101.99 30.4704C103.922 31.5982 105.524 33.2302 106.626 35.1776C107.207 36.204 106.847 37.5133 105.821 38.0959C104.796 38.6781 103.486 38.3176 102.905 37.2902C102.175 36.0008 101.108 34.9233 99.8289 34.1763C98.5521 33.4308 97.1091 33.0455 95.6316 33.0455C93.412 33.0455 91.3023 33.9198 89.7328 35.4909C88.1629 37.0616 87.2892 39.1735 87.2892 41.3949C87.2892 43.6165 88.1629 45.7279 89.7328 47.2984C91.3023 48.8695 93.412 49.7441 95.6316 49.7441C97.1095 49.7441 98.5525 49.3587 99.8293 48.6131C101.109 47.8661 102.175 46.7886 102.905 45.4988ZM186.836 36.5955C188.395 35.5228 190.235 34.9498 192.136 34.9498C193.268 34.9498 194.201 35.839 194.201 36.9794C194.201 38.1154 193.274 39.0456 192.136 39.0456C189.231 39.0456 186.865 41.3916 186.865 44.3027V51.5895C186.865 52.7029 185.959 53.6556 184.837 53.6556C183.7 53.6556 182.773 52.7256 182.773 51.5895V36.9491C182.773 35.8177 183.661 34.877 184.801 34.877C185.835 34.877 186.672 35.6128 186.836 36.5955ZM117.098 53.6556C111.938 53.6556 107.735 49.4263 107.735 44.2663C107.735 39.0873 111.921 34.877 117.098 34.877C122.295 34.877 126.462 39.0699 126.462 44.2663C126.462 49.4438 122.277 53.6556 117.098 53.6556ZM117.098 38.9728C114.177 38.9728 111.827 41.3472 111.827 44.2663C111.827 47.1665 114.194 49.5597 117.098 49.5597C120.003 49.5597 122.369 47.1671 122.369 44.2663C122.369 41.3467 120.02 38.9728 117.098 38.9728ZM140.471 37.3692C141.888 35.8399 143.856 34.9861 145.954 34.9861C150.1 34.9861 153.502 38.3464 153.502 42.5034C153.502 42.5617 153.499 42.614 153.487 42.6629C153.499 42.7146 153.502 42.7654 153.502 42.8305V51.6623C153.502 52.8 152.572 53.7283 151.438 53.7283C150.298 53.7283 149.41 52.7948 149.41 51.6623V42.8305C149.41 42.7699 149.41 42.7096 149.41 42.649C149.41 42.6005 149.41 42.5516 149.41 42.5034C149.41 40.6008 147.845 39.0819 145.954 39.0819C144.063 39.0819 142.499 40.6008 142.499 42.5034V51.6623C142.499 52.7948 141.61 53.7283 140.471 53.7283C139.336 53.7283 138.406 52.8 138.406 51.6623V42.5034C138.406 40.6056 136.884 39.0819 134.987 39.0819C133.096 39.0819 131.532 40.6008 131.532 42.5034V51.6623C131.532 52.7948 130.643 53.7283 129.504 53.7283C128.35 53.7283 127.439 52.8174 127.439 51.6623V42.5034C127.439 38.3464 130.842 34.9861 134.987 34.9861C137.086 34.9861 139.054 35.8399 140.471 37.3692Z" fill="#3A9EAA"/>
<path d="M87.5401 71.0101C86.6772 71.0101 85.8993 70.823 85.2059 70.4497C84.5137 70.0773 83.9725 69.5576 83.5835 68.8908C83.1944 68.2248 83 67.4708 83 66.6284C83 65.7863 83.1944 65.0346 83.5835 64.3736C83.9725 63.7127 84.5137 63.1955 85.2059 62.8222C85.8993 62.4488 86.6772 62.2626 87.5401 62.2626C88.4146 62.2626 89.1975 62.4488 89.8906 62.8222C90.5831 63.1955 91.1242 63.7127 91.5132 64.3736C91.9022 65.0346 92.0967 65.7863 92.0967 66.6284C92.0967 67.4708 91.9022 68.2248 91.5132 68.8908C91.1242 69.5576 90.5831 70.0773 89.8906 70.4497C89.1975 70.823 88.4146 71.0101 87.5401 71.0101ZM87.5401 69.2989C88.2756 69.2989 88.8833 69.0537 89.3629 68.5632C89.8426 68.0727 90.0827 67.4275 90.0827 66.6284C90.0827 65.8286 89.8426 65.1834 89.3629 64.6929C88.8833 64.2022 88.2756 63.957 87.5401 63.957C86.8052 63.957 86.2 64.2022 85.7254 64.6929C85.2517 65.1834 85.014 65.8286 85.014 66.6284C85.014 67.4275 85.2517 68.0727 85.7254 68.5632C86.2 69.0537 86.8052 69.2989 87.5401 69.2989ZM98.2628 62.2626C99.094 62.2626 99.8371 62.4438 100.493 62.8062C101.149 63.1689 101.662 63.6801 102.036 64.3413C102.409 65.0022 102.595 65.7646 102.595 66.6284C102.595 67.4915 102.409 68.2564 102.036 68.9233C101.662 69.5893 101.149 70.104 100.493 70.4663C99.8371 70.829 99.094 71.0101 98.2628 71.0101C97.1114 71.0101 96.2005 70.6261 95.529 69.8587V73.1685C95.529 73.6267 95.1557 74 94.6977 74H94.3619C93.9039 74 93.5306 73.6267 93.5306 73.1685V63.1896C93.5306 62.7315 93.9039 62.3581 94.3619 62.3581H94.602C95.06 62.3581 95.4333 62.7315 95.4333 63.1896V63.4772C95.7632 63.0724 96.1706 62.7689 96.6559 62.566C97.1406 62.3632 97.6767 62.2626 98.2628 62.2626ZM98.039 69.2989C98.7739 69.2989 99.3791 69.0537 99.8537 68.5632C100.327 68.0727 100.565 67.4275 100.565 66.6284C100.565 65.8286 100.327 65.1834 99.8537 64.6929C99.3791 64.2022 98.7739 63.957 98.039 63.957C97.5596 63.957 97.1274 64.0668 96.7441 64.2854C96.3602 64.5042 96.0567 64.816 95.8322 65.2208C95.6087 65.6258 95.4964 66.0946 95.4964 66.6284C95.4964 67.1615 95.6087 67.6304 95.8322 68.0354C96.0567 68.4402 96.3602 68.7519 96.7441 68.9705C97.1274 69.1893 97.5596 69.2989 98.039 69.2989ZM109.657 64.0534H107.498V70.0666C107.498 70.5247 107.125 70.8978 106.667 70.8978H106.331C105.873 70.8978 105.5 70.5247 105.5 70.0666V64.0534H103.326C102.868 64.0534 102.495 63.6801 102.495 63.2219V63.1896C102.495 62.7315 102.868 62.3581 103.326 62.3581H109.657C110.115 62.3581 110.488 62.7315 110.488 63.1896V63.2219C110.488 63.6801 110.115 64.0534 109.657 64.0534ZM114.847 71.0101C113.984 71.0101 113.206 70.823 112.513 70.4497C111.821 70.0773 111.28 69.5576 110.891 68.8908C110.501 68.2248 110.307 67.4708 110.307 66.6284C110.307 65.7863 110.501 65.0346 110.891 64.3736C111.28 63.7127 111.821 63.1955 112.513 62.8222C113.206 62.4488 113.984 62.2626 114.847 62.2626C115.722 62.2626 116.505 62.4488 117.198 62.8222C117.89 63.1955 118.431 63.7127 118.82 64.3736C119.209 65.0346 119.404 65.7863 119.404 66.6284C119.404 67.4708 119.209 68.2248 118.82 68.8908C118.431 69.5576 117.89 70.0773 117.198 70.4497C116.505 70.823 115.722 71.0101 114.847 71.0101ZM114.847 69.2989C115.583 69.2989 116.19 69.0537 116.67 68.5632C117.15 68.0727 117.39 67.4275 117.39 66.6284C117.39 65.8286 117.15 65.1834 116.67 64.6929C116.19 64.2022 115.583 63.957 114.847 63.957C114.112 63.957 113.507 64.2022 113.032 64.6929C112.559 65.1834 112.321 65.8286 112.321 66.6284C112.321 67.4275 112.559 68.0727 113.032 68.5632C113.507 69.0537 114.112 69.2989 114.847 69.2989ZM129.023 63.1896V70.0666C129.023 70.5247 128.649 70.8978 128.191 70.8978H127.871C127.413 70.8978 127.04 70.5247 127.04 70.0666V64.0534H122.836V70.0666C122.836 70.5247 122.463 70.8978 122.005 70.8978H121.669C121.211 70.8978 120.838 70.5247 120.838 70.0666V63.1896C120.838 62.7315 121.211 62.3581 121.669 62.3581H128.191C128.649 62.3581 129.023 62.7315 129.023 63.1896ZM139.186 66.6758C139.186 66.8146 139.175 67.0118 139.154 67.2677H132.455C132.572 67.8963 132.879 68.3953 133.374 68.7627C133.87 69.1312 134.485 69.3149 135.221 69.3149C135.896 69.3149 136.486 69.1535 136.99 68.8335C137.34 68.6106 137.792 68.6763 138.064 68.9897L138.084 69.0131C138.244 69.1975 138.311 69.417 138.282 69.6591C138.252 69.9018 138.134 70.0989 137.934 70.2393C137.699 70.4048 137.437 70.5445 137.155 70.6576C136.569 70.8921 135.908 71.0101 135.173 71.0101C134.235 71.0101 133.409 70.823 132.695 70.4497C131.981 70.0773 131.429 69.5576 131.04 68.8908C130.651 68.2248 130.457 67.4708 130.457 66.6284C130.457 65.7963 130.645 65.0478 131.024 64.3811C131.403 63.7152 131.927 63.1955 132.599 62.8222C133.27 62.4488 134.027 62.2626 134.869 62.2626C135.701 62.2626 136.444 62.4464 137.1 62.8138C137.755 63.1821 138.267 63.6985 138.634 64.3652C139.001 65.0312 139.186 65.802 139.186 66.6758ZM134.869 63.8615C134.229 63.8615 133.688 64.0509 133.246 64.4292C132.804 64.8076 132.535 65.3115 132.439 65.9401H137.283C137.198 65.3222 136.937 64.8208 136.5 64.4368C136.063 64.0534 135.519 63.8615 134.869 63.8615ZM149.844 69.2025V71.9697C149.844 72.4278 149.47 72.8011 149.013 72.8011H148.805C148.347 72.8011 147.973 72.4278 147.973 71.9697V70.8978H141.386V71.9697C141.386 72.4278 141.013 72.8011 140.555 72.8011H140.363C139.905 72.8011 139.532 72.4278 139.532 71.9697V69.2025H139.931C140.475 69.1818 140.845 68.8326 141.043 68.155C141.24 67.4781 141.37 66.5213 141.434 65.2849L141.516 63.1581C141.532 62.7116 141.9 62.3581 142.346 62.3581H147.75C148.208 62.3581 148.581 62.7315 148.581 63.1896V69.2025H149.844ZM143.257 65.4287C143.214 66.4098 143.134 67.2087 143.017 67.8275C142.9 68.4461 142.687 68.9042 142.378 69.2025H146.582V64.0534H143.305L143.257 65.4287ZM151.933 62.3581H152.269C152.727 62.3581 153.1 62.7315 153.1 63.1896V67.987L157.567 62.6558C157.731 62.4605 157.951 62.3581 158.205 62.3581H158.809C159.267 62.3581 159.64 62.7315 159.64 63.1896V70.0666C159.64 70.5247 159.267 70.8978 158.809 70.8978H158.472C158.014 70.8978 157.641 70.5247 157.641 70.0666V65.2691L153.19 70.5995C153.026 70.7957 152.807 70.8978 152.552 70.8978H151.933C151.475 70.8978 151.102 70.5247 151.102 70.0666V63.1896C151.102 62.7315 151.475 62.3581 151.933 62.3581ZM169.035 63.1896V70.0666C169.035 70.5247 168.662 70.8978 168.204 70.8978H167.867C167.409 70.8978 167.036 70.5247 167.036 70.0666V67.588C166.215 67.982 165.358 68.1792 164.462 68.1792C163.364 68.1792 162.522 67.9264 161.936 67.42C161.35 66.9136 161.057 66.1379 161.057 65.0927V63.1896C161.057 62.7315 161.43 62.3581 161.888 62.3581H162.224C162.682 62.3581 163.055 62.7315 163.055 63.1896V64.9649C163.055 65.5084 163.215 65.9135 163.535 66.1803C163.855 66.4472 164.308 66.5803 164.894 66.5803C165.64 66.5803 166.354 66.4199 167.036 66.1006V63.1896C167.036 62.7315 167.409 62.3581 167.867 62.3581H168.204C168.662 62.3581 169.035 62.7315 169.035 63.1896ZM179.181 66.6758C179.181 66.8146 179.171 67.0118 179.149 67.2677H172.45C172.568 67.8963 172.874 68.3953 173.37 68.7627C173.865 69.1312 174.481 69.3149 175.217 69.3149C175.892 69.3149 176.482 69.1535 176.985 68.8335C177.335 68.6106 177.788 68.6763 178.06 68.9897L178.079 69.0131C178.24 69.1975 178.307 69.417 178.277 69.6591C178.248 69.9018 178.129 70.0989 177.93 70.2393C177.694 70.4048 177.433 70.5445 177.151 70.6576C176.565 70.8921 175.904 71.0101 175.168 71.0101C174.231 71.0101 173.405 70.823 172.691 70.4497C171.977 70.0773 171.425 69.5576 171.036 68.8908C170.647 68.2248 170.452 67.4708 170.452 66.6284C170.452 65.7963 170.641 65.0478 171.02 64.3811C171.398 63.7152 171.923 63.1955 172.594 62.8222C173.266 62.4488 174.022 62.2626 174.864 62.2626C175.696 62.2626 176.439 62.4464 177.095 62.8138C177.75 63.1821 178.262 63.6985 178.63 64.3652C178.997 65.0312 179.181 65.802 179.181 66.6758ZM174.864 63.8615C174.225 63.8615 173.684 64.0509 173.242 64.4292C172.799 64.8076 172.53 65.3115 172.435 65.9401H177.279C177.193 65.3222 176.932 64.8208 176.495 64.4368C176.059 64.0534 175.515 63.8615 174.864 63.8615ZM184.724 71.0101C183.839 71.0101 183.045 70.823 182.342 70.4497C181.638 70.0773 181.089 69.5576 180.695 68.8908C180.3 68.2248 180.103 67.4708 180.103 66.6284C180.103 65.7863 180.3 65.0346 180.695 64.3736C181.089 63.7127 181.635 63.1955 182.333 62.8222C183.032 62.4488 183.828 62.2626 184.724 62.2626C185.566 62.2626 186.303 62.4331 186.938 62.7739C187.255 62.9444 187.535 63.1531 187.773 63.3991C187.958 63.5887 188.036 63.8289 188 64.0917C187.964 64.3536 187.824 64.5639 187.595 64.6971L187.454 64.7793C187.124 64.9721 186.719 64.92 186.448 64.6496C186.289 64.4901 186.109 64.3579 185.914 64.2531C185.547 64.0568 185.145 63.957 184.707 63.957C183.962 63.957 183.344 64.1997 182.853 64.6854C182.363 65.1702 182.117 65.8177 182.117 66.6284C182.117 67.4382 182.36 68.086 182.846 68.5708C183.33 69.0562 183.951 69.2989 184.707 69.2989C185.145 69.2989 185.547 69.2 185.914 69.0031C186.11 68.8983 186.289 68.7661 186.448 68.6065C186.719 68.3362 187.124 68.2838 187.454 68.4768L187.589 68.5557C187.818 68.6888 187.958 68.8999 187.994 69.162C188.03 69.4238 187.951 69.6641 187.766 69.8537C187.524 70.1031 187.242 70.3159 186.922 70.4905C186.289 70.8365 185.555 71.0101 184.724 71.0101ZM193.144 67.4756H191.593V70.0666C191.593 70.5247 191.22 70.8978 190.762 70.8978H190.426C189.968 70.8978 189.595 70.5247 189.595 70.0666V63.1896C189.595 62.7315 189.968 62.3581 190.426 62.3581H190.762C191.22 62.3581 191.593 62.7315 191.593 63.1896V65.8129H193.192L195.468 62.6991C195.63 62.478 195.866 62.3581 196.14 62.3581H196.191C196.515 62.3581 196.792 62.5295 196.935 62.8197C197.079 63.1089 197.049 63.4332 196.855 63.691L194.758 66.468L197.075 69.5683C197.268 69.827 197.297 70.1505 197.152 70.439C197.009 70.7275 196.732 70.8978 196.409 70.8978H196.132C195.862 70.8978 195.63 70.7816 195.468 70.5662L193.144 67.4756ZM199.774 62.3581H200.11C200.568 62.3581 200.941 62.7315 200.941 63.1896V67.987L205.408 62.6558C205.572 62.4605 205.791 62.3581 206.046 62.3581H206.649C207.107 62.3581 207.48 62.7315 207.48 63.1896V70.0666C207.48 70.5247 207.107 70.8978 206.649 70.8978H206.312C205.854 70.8978 205.481 70.5247 205.481 70.0666V65.2691L201.031 70.5995C200.867 70.7957 200.648 70.8978 200.392 70.8978H199.774C199.316 70.8978 198.943 70.5247 198.943 70.0666V63.1896C198.943 62.7315 199.316 62.3581 199.774 62.3581ZM210.464 62.3581H210.8C211.258 62.3581 211.631 62.7315 211.631 63.1896V67.987L216.098 62.6558C216.262 62.4605 216.481 62.3581 216.736 62.3581H217.339C217.797 62.3581 218.171 62.7315 218.171 63.1896V70.0666C218.171 70.5247 217.797 70.8978 217.339 70.8978H217.003C216.545 70.8978 216.172 70.5247 216.172 70.0666V65.2691L211.721 70.5995C211.557 70.7957 211.338 70.8978 211.083 70.8978H210.464C210.006 70.8978 209.633 70.5247 209.633 70.0666V63.1896C209.633 62.7315 210.006 62.3581 210.464 62.3581ZM213.773 61.3505C212.911 61.3505 212.252 61.1509 211.799 60.7511C211.536 60.5182 211.346 60.2239 211.233 59.8681C211.167 59.6594 211.201 59.4506 211.33 59.2735C211.459 59.0964 211.647 59 211.867 59H211.876C212.167 59 212.414 59.178 212.506 59.454C212.565 59.632 212.661 59.7849 212.79 59.9112C213.02 60.135 213.342 60.2472 213.758 60.2472C214.162 60.2472 214.485 60.1357 214.725 59.9112C214.862 59.7831 214.962 59.6277 215.024 59.4481C215.118 59.1755 215.364 59 215.653 59H215.695C215.915 59 216.104 59.0964 216.233 59.2744C216.363 59.4524 216.396 59.6619 216.328 59.8704C216.212 60.2248 216.021 60.5191 215.756 60.7511C215.298 61.1502 214.637 61.3505 213.773 61.3505ZM236.907 69.2025V72.0337C236.907 72.4919 236.534 72.8652 236.076 72.8652H235.867C235.409 72.8652 235.036 72.4919 235.036 72.0337V70.8978H228.37C227.912 70.8978 227.538 70.5247 227.538 70.0666V63.1896C227.538 62.7315 227.912 62.3581 228.37 62.3581H228.705C229.163 62.3581 229.537 62.7315 229.537 63.1896V69.2025H233.614V63.1896C233.614 62.7315 233.987 62.3581 234.445 62.3581H234.781C235.239 62.3581 235.612 62.7315 235.612 63.1896V69.2025H236.907ZM246.143 66.6758C246.143 66.8146 246.132 67.0118 246.11 67.2677H239.411C239.529 67.8963 239.835 68.3953 240.331 68.7627C240.826 69.1312 241.442 69.3149 242.178 69.3149C242.853 69.3149 243.443 69.1535 243.946 68.8335C244.296 68.6106 244.749 68.6763 245.021 68.9897L245.04 69.0131C245.201 69.1975 245.268 69.417 245.238 69.6591C245.209 69.9018 245.09 70.0989 244.891 70.2393C244.656 70.4048 244.394 70.5445 244.112 70.6576C243.526 70.8921 242.865 71.0101 242.13 71.0101C241.192 71.0101 240.366 70.823 239.652 70.4497C238.938 70.0773 238.386 69.5576 237.997 68.8908C237.608 68.2248 237.413 67.4708 237.413 66.6284C237.413 65.7963 237.602 65.0478 237.981 64.3811C238.359 63.7152 238.884 63.1955 239.555 62.8222C240.227 62.4488 240.983 62.2626 241.825 62.2626C242.657 62.2626 243.401 62.4464 244.056 62.8138C244.711 63.1821 245.223 63.6985 245.591 64.3652C245.958 65.0312 246.143 65.802 246.143 66.6758ZM241.825 63.8615C241.186 63.8615 240.645 64.0509 240.203 64.4292C239.761 64.8076 239.491 65.3115 239.396 65.9401H244.24C244.154 65.3222 243.893 64.8208 243.456 64.4368C243.02 64.0534 242.476 63.8615 241.825 63.8615ZM248.631 62.3581H248.967C249.425 62.3581 249.798 62.7315 249.798 63.1896V65.8287H254.099V63.1896C254.099 62.7315 254.472 62.3581 254.93 62.3581H255.266C255.724 62.3581 256.097 62.7315 256.097 63.1896V70.0666C256.097 70.5247 255.724 70.8978 255.266 70.8978H254.93C254.472 70.8978 254.099 70.5247 254.099 70.0666V67.5239H249.798V70.0666C249.798 70.5247 249.425 70.8978 248.967 70.8978H248.631C248.173 70.8978 247.8 70.5247 247.8 70.0666V63.1896C247.8 62.7315 248.173 62.3581 248.631 62.3581ZM264.182 64.0534H262.024V70.0666C262.024 70.5247 261.651 70.8978 261.193 70.8978H260.857C260.399 70.8978 260.026 70.5247 260.026 70.0666V64.0534H257.851C257.393 64.0534 257.02 63.6801 257.02 63.2219V63.1896C257.02 62.7315 257.393 62.3581 257.851 62.3581H264.182C264.64 62.3581 265.014 62.7315 265.014 63.1896V63.2219C265.014 63.6801 264.64 64.0534 264.182 64.0534ZM270.668 62.2626C271.499 62.2626 272.242 62.4438 272.898 62.8062C273.554 63.1689 274.067 63.6801 274.441 64.3413C274.814 65.0022 275 65.7646 275 66.6284C275 67.4915 274.814 68.2564 274.441 68.9233C274.067 69.5893 273.554 70.104 272.898 70.4663C272.242 70.829 271.499 71.0101 270.668 71.0101C269.516 71.0101 268.605 70.6261 267.934 69.8587V73.1685C267.934 73.6267 267.561 74 267.103 74H266.767C266.309 74 265.936 73.6267 265.936 73.1685V63.1896C265.936 62.7315 266.309 62.3581 266.767 62.3581H267.007C267.465 62.3581 267.838 62.7315 267.838 63.1896V63.4772C268.168 63.0724 268.576 62.7689 269.061 62.566C269.546 62.3632 270.082 62.2626 270.668 62.2626ZM270.444 69.2989C271.179 69.2989 271.784 69.0537 272.259 68.5632C272.732 68.0727 272.97 67.4275 272.97 66.6284C272.97 65.8286 272.732 65.1834 272.259 64.6929C271.784 64.2022 271.179 63.957 270.444 63.957C269.965 63.957 269.532 64.0668 269.149 64.2854C268.765 64.5042 268.462 64.816 268.237 65.2208C268.014 65.6258 267.901 66.0946 267.901 66.6284C267.901 67.1615 268.014 67.6304 268.237 68.0354C268.462 68.4402 268.765 68.7519 269.149 68.9705C269.532 69.1893 269.965 69.2989 270.444 69.2989Z" fill="#56326E"/>
<path d="M134.744 4.61465V13.6169L134.745 13.6838V21.4607C134.745 22.8889 133.577 24.0577 132.15 24.0577H132.149C130.722 24.0577 129.554 22.8896 129.554 21.4607V19.0779V13.6838V4.61465H121.887L114.459 12.0899L122.221 19.9011C123.166 20.8529 123.162 22.4049 122.211 23.3512C121.26 24.2973 119.708 24.2918 118.764 23.3411L111.021 15.5493L103.278 23.3411C102.81 23.8116 102.194 24.0501 101.576 24.057V24.0577H101.267H100.317H99.4332H98.6114H97.851H97.1493H96.5043H95.9142H95.3769H94.8901H94.4519H94.0604H93.8553H93.8508H93.8386H93.8231H93.8033H93.77H93.7506H93.7131H93.6899H93.683H93.6031H93.5808H93.5119H93.4402H93.4118H93.4087H93.3054H93.2663H93.1941H93.1446H93.0802H93.0571H92.9655H92.9187H92.8526H92.81H92.7435H92.7293H92.6395H92.5743H92.5432H92.5239H92.4566H92.4514H92.3817H92.3585H92.3208H92.2938H92.2753H92.2553H92.2481H92.2407H92.1957H91.8243H91.4072H90.9422H90.4274H89.8609H89.2407H88.5644H87.8303H87.0359H86.1798H85.5953H85.595H85.5946C84.2112 24.0577 83.0713 22.959 83.0034 21.5901L83 21.5869V21.4607V4.33562V2.73234C83 1.379 84.048 0.258404 85.3719 0.144966C85.4446 0.139096 85.5201 0.135548 85.5953 0.135548H85.5988H85.6022H85.6061H85.6095H85.613H85.6164H85.6202H85.6237H86.1798H101.267C101.983 0.0541893 102.731 0.288575 103.277 0.837064L111.021 8.62989L118.765 0.837064C119.31 0.288575 120.057 0.0541893 120.773 0.135548H142.69H145.601H154.759C157.902 0.135548 160.251 0.962516 161.806 2.61331C163.392 4.29713 164.187 6.20346 164.187 8.33202C164.187 9.98391 163.759 11.4852 162.902 12.8354C162.109 14.0839 160.991 15.0271 159.547 15.6644L159.764 16.0219L162.399 20.3505C162.443 20.422 162.482 20.4954 162.517 20.57L162.536 20.5326L165.191 15.4483L167.425 11.1115L172.471 1.31866C172.763 0.749696 173.253 0.345363 173.814 0.14456L173.839 0.135548L173.872 0.12449L173.875 0.12381L173.923 0.108246L173.93 0.1062L173.951 0.0999213L173.989 0.0891367L174.007 0.083951L174.047 0.0735729L174.064 0.0693471L174.071 0.0677074C174.203 0.0357645 174.336 0.0156979 174.469 0.00627883L174.519 0.00313941L174.528 0.00286613L174.578 0.00109313L174.587 0.000679873L174.637 0H174.646L174.696 0.000679873H174.705L174.755 0.00286613L174.765 0.00313941L174.814 0.00627883C174.95 0.0156979 175.085 0.0368582 175.22 0.0693471L175.237 0.0735729L175.276 0.083951L175.327 0.0981483L175.333 0.0999213L175.354 0.1062L175.357 0.107153L175.411 0.12449L175.444 0.135548L175.469 0.14456C176.031 0.345363 176.52 0.748607 176.813 1.31825L181.859 11.1115L184.093 15.4483L186.748 20.5326C187.367 21.7194 186.89 23.2044 185.699 23.8195C184.507 24.4339 183.036 23.9589 182.415 22.7696L180.519 19.1373L180.431 19.1394H168.764L166.869 22.7696C166.438 23.5952 165.597 24.0848 164.725 24.0883C162.668 24.0962 162.992 24.0883 160.406 24.0893C159.556 24.0897 158.697 23.6479 158.236 22.8896L155.587 18.5371L154.393 16.5763H153.892H153.855H152.168H150.48H147.88V19.0779V21.4607C147.88 22.8885 146.711 24.0577 145.285 24.0577H145.284C143.858 24.0577 142.69 22.8896 142.69 21.4607V19.0779V13.6838V4.61465H134.744ZM88.1903 9.85737H93.8501C95.081 9.85737 96.0879 10.8649 96.0879 12.0969C96.0879 13.3288 95.081 14.3365 93.8501 14.3365H88.1903V19.5786H100.141L107.583 12.0899L100.154 4.61465H88.1903V9.85737ZM178.57 15.3749L177.513 13.324L174.642 7.75119L171.771 13.324L170.714 15.3749H178.57ZM153.998 4.75825H147.88V12.0012H153.998C157.077 12.0012 158.616 10.7782 158.616 8.33202C158.616 5.94928 157.076 4.75825 153.998 4.75825Z" fill="#56326E"/>
<path fill-rule="evenodd" clip-rule="evenodd" d="M4.76116 43.424C2.1318 43.424 0 41.2685 0 38.6099C0 35.9512 2.1318 33.7957 4.76116 33.7957C7.39052 33.7957 9.52232 35.9512 9.52232 38.6099C9.52232 41.2685 7.39052 43.424 4.76116 43.424ZM35.8336 16.0675C31.4455 16.0675 27.8883 12.4704 27.8883 8.03385C27.8883 3.59733 31.4455 0 35.8336 0C40.2213 0 43.779 3.59733 43.779 8.03385C43.779 12.4704 40.2213 16.0675 35.8336 16.0675ZM35.8332 46.212C31.4449 46.212 27.8878 42.6147 27.8878 38.1782C27.8878 33.7416 31.4449 30.1445 35.8332 30.1445C40.2209 30.1445 43.7787 33.7416 43.7787 38.1782C43.7787 42.6147 40.2209 46.212 35.8332 46.212ZM35.9997 74C33.3707 74 31.2385 71.8445 31.2385 69.1859C31.2385 66.5273 33.3707 64.3717 35.9997 64.3717C38.6291 64.3717 40.7615 66.5273 40.7615 69.1859C40.7615 71.8445 38.6291 74 35.9997 74ZM67.2388 43.424C64.6095 43.424 62.4775 41.2685 62.4775 38.6099C62.4775 35.9512 64.6095 33.7957 67.2388 33.7957C69.8682 33.7957 72 35.9512 72 38.6099C72 41.2685 69.8682 43.424 67.2388 43.424Z" fill="#56326E"/>
<path fill-rule="evenodd" clip-rule="evenodd" d="M4.76116 12.6581C2.1318 12.6581 0 10.4959 0 7.82904C0 5.1622 2.1318 3 4.76116 3C7.39052 3 9.52232 5.1622 9.52232 7.82904C9.52232 10.4959 7.39052 12.6581 4.76116 12.6581ZM4.76116 74C2.1318 74 0 71.8378 0 69.171C0 66.5041 2.1318 64.3419 4.76116 64.3419C7.39052 64.3419 9.52232 66.5041 9.52232 69.171C9.52232 71.8378 7.39052 74 4.76116 74ZM67.2388 74C64.6095 74 62.4775 71.8378 62.4775 69.171C62.4775 66.5041 64.6095 64.3419 67.2388 64.3419C69.8682 64.3419 72 66.5041 72 69.171C72 71.8378 69.8682 74 67.2388 74ZM40.296 52.6288L50.8356 63.3192C53.497 66.0186 57.8299 66.0186 60.491 63.3186C63.1518 60.6192 63.1518 56.2246 60.491 53.5256C57.0147 50.0004 53.5474 46.4683 50.0803 42.936C48.5472 47.5525 44.8946 51.1801 40.296 52.6288ZM40.5786 23.5991L50.8356 13.1959C53.497 10.4965 57.8299 10.4965 60.491 13.1959C63.1518 15.8957 63.1518 20.2899 60.491 22.9887C57.0455 26.4829 53.6093 29.9841 50.1721 33.4852C48.7269 28.8286 45.1377 25.1365 40.5786 23.5991ZM21.4943 33.4852C18.0575 29.9841 14.621 26.4829 11.1758 22.9887C8.51438 20.2899 8.51399 15.8957 11.1749 13.1959C13.8363 10.4965 18.1692 10.4965 20.8308 13.1959L31.0878 23.5991C26.5291 25.1365 22.9399 28.8286 21.4943 33.4852ZM21.5861 42.936C18.1184 46.4683 14.6517 50.0004 11.1758 53.5256C8.51438 56.2246 8.51399 60.6192 11.1749 63.3186C13.8363 66.0186 18.1692 66.0186 20.8308 63.3192L31.3704 52.6288C26.7723 51.1805 23.1192 47.5521 21.5861 42.936ZM67.2388 12.6581C64.6095 12.6581 62.4775 10.4959 62.4775 7.82904C62.4775 5.1622 64.6095 3 67.2388 3C69.8682 3 72 5.1622 72 7.82904C72 10.4959 69.8682 12.6581 67.2388 12.6581Z" fill="#3A9EAA"/>
</svg>
