<svg width="40" height="40" viewBox="0 0 40 40" fill="none" xmlns="http://www.w3.org/2000/svg">
<path fill-rule="evenodd" clip-rule="evenodd" d="M39.8085 19.8354C39.8041 30.7615 30.916 39.6518 19.9876 39.6563H19.9794C16.6621 39.6551 13.4025 38.8228 10.5074 37.2437L0 40L2.81196 29.729C1.07741 26.7229 0.164693 23.3132 0.16618 19.8198C0.170528 8.89124 9.06225 0 19.9874 0C25.2898 0.00228844 30.2664 2.06648 34.0086 5.81307C37.7508 9.55947 39.8106 14.5394 39.8085 19.8354ZM4.75632 35.2898L10.9916 33.6542L11.5932 34.0112C14.1226 35.5122 17.022 36.3065 19.9782 36.3076H19.9849C29.0651 36.3076 36.4555 28.9171 36.4592 19.8331C36.4609 15.431 34.7489 11.292 31.6385 8.17796C28.5281 5.06393 24.3917 3.34816 19.9914 3.34663C10.9042 3.34663 3.51366 10.7365 3.51006 19.8197C3.50878 22.9327 4.37977 25.9643 6.02889 28.5872L6.4206 29.2105L4.75632 35.2898Z" fill="#56326E"/>
<path d="M29.5783 25.7873C29.4545 25.5807 29.1244 25.4568 28.6292 25.2088C28.1339 24.9609 25.699 23.7629 25.2449 23.5975C24.791 23.4323 24.4607 23.3497 24.1306 23.8454C23.8005 24.3411 22.8514 25.4568 22.5625 25.7873C22.2735 26.1177 21.9846 26.1592 21.4895 25.9113C20.9943 25.6634 19.3985 25.1404 17.5067 23.4531C16.0344 22.1398 15.0405 20.518 14.7516 20.0222C14.4627 19.5264 14.7208 19.2584 14.9687 19.0115C15.1915 18.7895 15.464 18.4329 15.7116 18.1438C15.9592 17.8547 16.0418 17.6479 16.2068 17.3176C16.3719 16.9869 16.2894 16.6978 16.1656 16.4499C16.0418 16.202 15.0513 13.7642 14.6386 12.7726C14.2365 11.8068 13.8283 11.9376 13.5243 11.9224C13.2357 11.9079 12.9052 11.9048 12.5751 11.9048C12.2449 11.9048 11.7083 12.0288 11.2544 12.5246C10.8004 13.0205 9.521 14.2187 9.521 16.6563C9.521 19.094 11.2956 21.4491 11.5433 21.7796C11.7909 22.1102 15.0355 27.1125 20.0038 29.2578C21.1854 29.7681 22.1078 30.0728 22.8271 30.3011C24.0135 30.6781 25.0933 30.6249 25.9465 30.4973C26.8981 30.3552 28.8767 29.2993 29.2896 28.1425C29.7021 26.9854 29.7021 25.9938 29.5783 25.7873Z" fill="#56326E"/>
</svg>
